<!-- Generator: Adobe Illustrator 19.2.0, SVG Export Plug-In  -->
<svg version="1.1"
	 xmlns="http://www.w3.org/2000/svg" xmlns:xlink="http://www.w3.org/1999/xlink" xmlns:a="http://ns.adobe.com/AdobeSVGViewerExtensions/3.0/"
	 x="0px" y="0px" width="181.5px" height="106px" viewBox="0 0 181.5 106" style="enable-background:new 0 0 181.5 106;"
	 xml:space="preserve">
<style type="text/css">
	.st0{fill:#FFFFFF;}
</style>
<defs>
</defs>
<path class="st0" d="M176.8,80.3c0.7,0,2.9,0,3.2-4.7c1.1-14.9,2.1-47.5,1.2-48.7c-0.9-1.1-8.1-2.1-8.1,0
	C173.1,29,174,80.3,176.8,80.3z"/>
<path class="st0" d="M4.8,80.3c-0.7,0-2.9,0-3.2-4.7C0.5,60.7-0.6,28,0.4,26.9c0.9-1.1,8.1-2.1,8.1,0S7.5,80.3,4.8,80.3z"/>
<g>
	<path class="st0" d="M110.8,38.4h-8v11.5h8c3.7,0,6.2-2.4,6.2-5.7C116.9,40.7,114.5,38.4,110.8,38.4z"/>
	<path class="st0" d="M164.3,22.5c0-5.6-4.1-19.7-18.2-19.7c0,0-27.9-2.8-55.3-2.8C63.3,0,35.4,2.8,35.4,2.8
		c-14.1,0-18.2,14.2-18.2,19.7l-5.5,73.4c0,5.6,4.4,10.1,9.9,10.1c0,0,35.3-7.5,69.1-7.5c33.8,0,69.1,7.5,69.1,7.5
		c5.6,0,9.9-4.5,9.9-10.1L164.3,22.5z M74.7,74.2h-6.3L54,30.8h8.8l8.7,28.3l8.7-28.3h8.8L74.7,74.2z M117.4,74.2l-8.5-17.3h-6.1
		v17.3h-8.5V30.8h17c8.8,0,14.1,6,14.1,13.3c0,6.1-3.7,9.9-7.9,11.4l9.7,18.7H117.4z"/>
</g>
</svg>
