<svg xmlns="http://www.w3.org/2000/svg" width="88" height="122" viewBox="0 0 88 122">
    <g fill="#FFF" fill-rule="evenodd">
        <path d="M10.743 120.62c-8.71-3.417-12.99-13.221-9.56-21.899l34.802-88.02c3.43-8.676 13.272-12.94 21.983-9.522 8.71 3.418 12.99 13.222 9.56 21.9l-34.801 88.018c-3.431 8.677-13.274 12.941-21.984 9.524M52.83 120.212c-8.71-3.417-12.99-13.222-9.56-21.9L58.89 59.569c1.17-2.96 4.528-4.415 7.5-3.249l10.39 4.076c8.711 3.418 12.99 13.223 9.56 21.9l-11.526 28.394c-3.43 8.677-13.272 12.941-21.983 9.523"/>
    </g>
</svg>
