<?xml version="1.0" encoding="UTF-8"?>
<svg xmlns="http://www.w3.org/2000/svg" xmlns:xlink="http://www.w3.org/1999/xlink" version="1.2" >
<font id="DIN-Bold">
<font-face  font-family="DIN" units-per-em="1000" ascent="802.979" descent="-196.777" font-style="normal" font-weight="700" font-stretch="normal" cap-height="750" x-height="500" underline-position="-91.5" underline-thickness="87" />
<missing-glyph  horiz-adv-x="1000" d="" />
<glyph glyph-name="NULL" d="" />
<glyph glyph-name="CR" unicode="&#xd;" horiz-adv-x="250" d="" />
<glyph glyph-name="space" unicode="&#x20;" horiz-adv-x="232" d="" />
<glyph glyph-name="exclam" unicode="&#x21;" horiz-adv-x="347" d="M272 712 L112 712 L143 223 L241 223 L272 712 Z M261 0 L261 133 L123 133 L123 0 L261 0 Z " />
<glyph glyph-name="quotedbl" unicode="&#x22;" horiz-adv-x="464" d="M395 501 L395 712 L274 712 L274 501 L395 501 Z M190 501 L190 712 L68 712 L68 501 L190 501 Z " />
<glyph glyph-name="numbersign" unicode="&#x23;" horiz-adv-x="691" d="M643 420 L643 541 L574 541 L601 718 L465 718 L437 541 L321 541 L349 718 L212 718 L184 541 L95 541 L95 420 L165 420 L149 312 L60 312 L60 190 L129 190 L99 0 L236 0 L266 190 L382 190 L351 0 L488 0 L518 190 L607 190 L607 312 L538 312 L554 420 L643 420 Z M417 420 L401 312 L285 312 L302 420 L417 420 Z " />
<glyph glyph-name="dollar" unicode="&#x24;" horiz-adv-x="619" d="M571 210 C571 273 554 324 516 360 C486 388 445 406 380 416 L342 422 L342 596 C383 593 432 580 465 548 L553 635 C499 687 437 712 356 717 L356 806 L255 806 L255 716 C125 702 47 617 47 502 C47 442 64 397 98 363 C128 333 176 311 236 303 L268 299 L268 118 C208 120 151 136 109 178 L19 88 C84 22 159 -3 255 -6 L255 -114 L356 -114 L356 -2 C481 13 571 88 571 210 L571 210 Z M268 428 C240 432 218 441 202 456 C187 470 181 489 181 507 C181 551 210 587 268 595 L268 428 Z M435 206 C435 157 402 127 342 120 L342 292 C368 288 393 285 413 266 C428 252 435 231 435 206 L435 206 Z " />
<glyph glyph-name="percent" unicode="&#x25;" horiz-adv-x="848" d="M796 131 L796 230 C796 320 729 367 651 367 C572 367 506 320 506 230 L506 131 C506 41 572 -6 651 -6 C729 -6 796 41 796 131 L796 131 Z M644 712 L542 712 L205 0 L307 0 L644 712 Z M342 482 L342 581 C342 671 275 718 197 718 C118 718 52 671 52 581 L52 482 C52 392 118 345 197 345 C275 345 342 392 342 482 L342 482 Z M702 135 C702 97 683 78 651 78 C618 78 600 97 600 135 L600 226 C600 264 618 283 651 283 C683 283 702 264 702 226 L702 135 Z M248 486 C248 448 229 429 197 429 C165 429 146 448 146 486 L146 577 C146 615 164 634 197 634 C229 634 248 615 248 577 L248 486 Z " />
<glyph glyph-name="ampersand" unicode="&#x26;" horiz-adv-x="721" d="M696 0 L568 151 C618 207 639 280 644 372 L521 372 C519 321 508 278 485 247 L365 389 C383 401 416 426 416 426 C460 458 489 495 489 550 C489 647 419 718 307 718 C188 718 117 649 117 552 C117 484 159 434 188 401 C126 360 60 301 60 210 C60 76 138 -6 295 -6 C397 -6 446 36 479 62 L531 0 L696 0 Z M366 549 C366 524 348 505 325 489 C325 489 305 475 295 469 C270 498 248 523 248 549 C248 582 268 607 307 607 C344 607 366 582 366 549 L366 549 Z M400 154 C367 125 336 112 294 112 C234 112 186 153 186 212 C186 263 215 291 258 321 L400 154 Z " />
<glyph glyph-name="quotesingle" unicode="&#x27;" horiz-adv-x="259" d="M191 501 L191 712 L68 712 L68 501 L191 501 Z " />
<glyph glyph-name="parenleft" unicode="&#x28;" horiz-adv-x="336" d="M281 -7 C257 17 242 31 225 60 C215 78 210 106 210 144 L210 568 C210 606 215 634 225 652 C242 681 257 695 281 719 L194 806 C161 773 129 742 106 703 C83 663 80 618 80 574 L80 138 C80 94 83 49 106 9 C129 -30 161 -61 194 -94 L281 -7 Z " />
<glyph glyph-name="parenright" unicode="&#x29;" horiz-adv-x="336" d="M256 138 L256 574 C256 618 253 663 230 703 C207 742 175 773 142 806 L54 718 C78 694 93 681 110 652 C120 634 125 606 125 568 L125 144 C125 106 120 78 110 60 C93 31 78 18 54 -6 L142 -94 C175 -61 207 -30 230 9 C253 49 256 94 256 138 L256 138 Z " />
<glyph glyph-name="asterisk" unicode="&#x2a;" horiz-adv-x="494" d="M440 460 L329 518 L440 576 L394 656 L289 589 L293 714 L201 714 L206 589 L100 656 L55 576 L165 518 L55 460 L100 381 L206 447 L201 322 L293 322 L289 447 L394 381 L440 460 Z " />
<glyph glyph-name="plus" unicode="&#x2b;" horiz-adv-x="543" d="M493 216 L493 338 L333 338 L333 498 L211 498 L211 338 L50 338 L50 216 L211 216 L211 56 L333 56 L333 216 L493 216 Z " />
<glyph glyph-name="comma" unicode="&#x2c;" horiz-adv-x="279" d="M211 -55 L211 142 L68 142 L68 -165 L211 -55 Z " />
<glyph glyph-name="hyphen" unicode="&#x2d;" horiz-adv-x="426" d="M367 225 L367 346 L59 346 L59 225 L367 225 Z " />
<glyph glyph-name="period" unicode="&#x2e;" horiz-adv-x="285" d="M217 0 L217 148 L68 148 L68 0 L217 0 Z " />
<glyph glyph-name="slash" unicode="&#x2f;" horiz-adv-x="403" d="M407 786 L285 786 L0 -74 L122 -74 L407 786 Z " />
<glyph glyph-name="zero" unicode="0" horiz-adv-x="543" d="M488 206 L488 506 C488 642 388 718 272 718 C156 718 55 642 55 506 L55 206 C55 70 156 -6 272 -6 C388 -6 488 70 488 206 L488 206 Z M358 207 C358 147 323 111 272 111 C221 111 185 147 185 207 L185 504 C185 564 221 601 272 601 C323 601 358 564 358 504 L358 207 Z " />
<glyph glyph-name="one" unicode="1" horiz-adv-x="543" d="M378 0 L378 712 L248 712 L103 586 L103 446 L248 572 L248 0 L378 0 Z " />
<glyph glyph-name="two" unicode="2" horiz-adv-x="543" d="M492 0 L492 117 L217 117 L416 348 C465 405 492 442 492 511 C492 639 402 718 276 718 C154 718 59 640 59 510 L189 510 C189 579 233 601 276 601 C331 601 362 565 362 512 C362 479 351 457 325 426 L59 117 L59 0 L492 0 Z " />
<glyph glyph-name="three" unicode="3" horiz-adv-x="543" d="M495 206 C495 292 454 341 403 368 C450 393 485 437 485 514 C485 634 394 718 268 718 C148 718 53 642 50 515 L180 515 C183 569 219 601 268 601 C315 601 355 570 355 510 C355 460 328 421 265 421 L246 421 L246 308 L265 308 C329 308 365 269 365 210 C365 146 325 111 269 111 C218 111 174 140 172 204 L42 204 C44 55 153 -6 269 -6 C391 -6 495 64 495 206 L495 206 Z " />
<glyph glyph-name="four" unicode="4" horiz-adv-x="543" d="M512 101 L512 224 L447 224 L447 357 L322 357 L322 224 L173 224 L417 712 L275 712 L31 224 L31 101 L322 101 L322 0 L447 0 L447 101 L512 101 Z " />
<glyph glyph-name="five" unicode="5" horiz-adv-x="543" d="M494 240 C494 307 486 374 430 430 C401 459 356 478 297 478 C249 478 209 460 190 442 L190 595 L478 595 L478 712 L72 712 L72 310 L191 310 C200 338 224 368 277 368 C340 368 364 322 364 240 C364 195 359 157 336 134 C320 118 299 111 274 111 C220 111 194 143 187 199 L57 199 C61 147 71 95 115 51 C146 20 200 -6 274 -6 C348 -6 399 20 431 52 C483 104 494 160 494 240 L494 240 Z " />
<glyph glyph-name="six" unicode="6" horiz-adv-x="543" d="M492 216 C492 348 401 427 305 427 C288 427 269 425 252 418 L400 712 L258 712 L108 404 C76 339 48 279 48 214 C48 73 144 -6 270 -6 C396 -6 492 76 492 216 L492 216 Z M362 215 C362 149 323 111 270 111 C217 111 178 149 178 215 C178 281 217 319 270 319 C325 319 362 278 362 215 L362 215 Z " />
<glyph glyph-name="seven" unicode="7" horiz-adv-x="543" d="M503 595 L503 712 L50 712 L50 483 L174 483 L174 595 L362 595 L131 0 L272 0 L503 595 Z " />
<glyph glyph-name="eight" unicode="8" horiz-adv-x="543" d="M500 207 C500 294 449 341 410 367 C446 392 490 439 490 515 C490 641 391 718 272 718 C153 718 53 641 53 515 C53 439 97 392 133 367 C94 341 44 294 44 207 C44 69 146 -6 272 -6 C398 -6 500 69 500 207 L500 207 Z M360 511 C360 459 323 421 272 421 C221 421 183 459 183 511 C183 562 221 601 272 601 C323 601 360 562 360 511 L360 511 Z M370 209 C370 154 327 111 272 111 C217 111 174 154 174 209 C174 264 217 308 272 308 C327 308 370 264 370 209 L370 209 Z " />
<glyph glyph-name="nine" unicode="9" horiz-adv-x="543" d="M495 498 C495 639 399 718 273 718 C147 718 51 636 51 496 C51 364 143 285 239 285 C256 285 275 287 292 294 L144 0 L285 0 L436 308 C468 373 495 433 495 498 L495 498 Z M365 497 C365 431 326 393 273 393 C218 393 181 434 181 497 C181 563 220 601 273 601 C326 601 365 563 365 497 L365 497 Z " />
<glyph glyph-name="colon" unicode="&#x3a;" horiz-adv-x="309" d="M241 271 L241 419 L93 419 L93 271 L241 271 Z M241 0 L241 148 L93 148 L93 0 L241 0 Z " />
<glyph glyph-name="semicolon" unicode="&#x3b;" horiz-adv-x="309" d="M241 271 L241 419 L93 419 L93 271 L241 271 Z M238 -55 L238 142 L96 142 L96 -165 L238 -55 Z " />
<glyph glyph-name="less" unicode="&#x3c;" horiz-adv-x="1027" d="M976 224 L976 347 L273 347 L599 670 L435 670 L50 285 L435 -100 L599 -100 L273 224 L976 224 Z " />
<glyph glyph-name="equal" unicode="&#x3d;" horiz-adv-x="543" d="M493 333 L493 455 L50 455 L50 333 L493 333 Z M493 116 L493 238 L50 238 L50 116 L493 116 Z " />
<glyph glyph-name="greater" unicode="&#x3e;" horiz-adv-x="1027" d="M977 285 L592 670 L428 670 L754 347 L50 347 L50 224 L754 224 L428 -100 L592 -100 L977 285 Z " />
<glyph glyph-name="question" unicode="&#x3f;" horiz-adv-x="523" d="M487 518 C487 645 389 718 276 718 C160 718 66 642 66 518 L196 518 C196 564 223 601 276 601 C326 601 357 566 357 519 C357 497 344 473 328 452 L254 357 C228 323 216 296 216 253 L216 223 L346 223 L346 244 C346 261 354 282 364 295 L438 393 C466 430 487 468 487 518 L487 518 Z M350 0 L350 133 L212 133 L212 0 L350 0 Z " />
<glyph glyph-name="at" unicode="&#x40;" horiz-adv-x="758" d="M700 -3 L700 466 C700 548 685 609 639 655 C592 702 529 716 451 716 L307 716 C226 716 165 701 119 655 C73 609 57 547 57 466 L57 167 C57 77 79 36 136 -15 L226 75 C193 104 182 124 182 174 L182 463 C182 505 188 536 217 565 C245 593 277 600 317 600 L441 600 C481 600 515 591 541 565 C568 538 576 505 576 463 L576 418 C546 451 509 467 458 467 C406 467 361 448 332 416 C292 372 286 320 286 231 C286 141 292 88 333 44 C363 12 407 -6 459 -6 C514 -6 547 11 579 46 L579 0 L700 -3 Z M576 231 C576 152 557 102 493 102 C429 102 411 152 411 231 C411 310 429 359 493 359 C557 359 576 310 576 231 L576 231 Z " />
<glyph glyph-name="A" unicode="A" horiz-adv-x="638" d="M633 0 L373 712 L264 712 L5 0 L150 0 L193 126 L446 126 L488 0 L633 0 Z M409 243 L232 243 L322 502 L409 243 Z " />
<glyph glyph-name="B" unicode="B" horiz-adv-x="658" d="M599 205 C599 300 544 345 501 365 C537 382 589 433 589 512 C589 634 508 712 369 712 L83 712 L83 0 L381 0 C508 0 599 72 599 205 L599 205 Z M450 506 C450 457 417 424 358 424 L222 424 L222 588 L358 588 C417 588 450 555 450 506 L450 506 Z M460 212 C460 164 430 124 367 124 L222 124 L222 299 L367 299 C430 299 460 260 460 212 L460 212 Z " />
<glyph glyph-name="C" unicode="C" horiz-adv-x="620" d="M583 219 L442 219 C428 162 392 118 322 118 C284 118 253 132 233 155 C206 185 198 219 198 356 C198 493 206 527 233 557 C253 580 284 594 322 594 C392 594 428 550 442 493 L583 493 C558 642 454 718 321 718 C243 718 179 690 129 640 C57 568 59 479 59 356 C59 233 57 144 129 72 C179 22 243 -6 321 -6 C453 -6 558 70 583 219 L583 219 Z " />
<glyph glyph-name="D" unicode="D" horiz-adv-x="659" d="M600 359 C600 466 608 564 528 644 C481 691 414 712 340 712 L83 712 L83 0 L340 0 C414 0 481 21 528 68 C608 148 600 252 600 359 L600 359 Z M461 359 C461 251 457 200 431 168 C407 139 375 124 327 124 L222 124 L222 588 L327 588 C375 588 407 573 431 544 C457 512 461 467 461 359 L461 359 Z " />
<glyph glyph-name="E" unicode="E" horiz-adv-x="605" d="M552 0 L552 124 L222 124 L222 297 L503 297 L503 421 L222 421 L222 588 L552 588 L552 712 L83 712 L83 0 L552 0 Z " />
<glyph glyph-name="F" unicode="F" horiz-adv-x="590" d="M552 588 L552 712 L83 712 L83 0 L222 0 L222 289 L503 289 L503 413 L222 413 L222 588 L552 588 Z " />
<glyph glyph-name="G" unicode="G" horiz-adv-x="648" d="M590 292 L590 396 L321 396 L321 280 L452 280 L452 253 C452 216 443 184 420 158 C397 133 363 118 321 118 C283 118 252 132 232 155 C205 185 198 219 198 356 C198 493 205 526 232 556 C252 579 283 594 321 594 C392 594 433 557 449 490 L589 490 C570 610 486 718 321 718 C241 718 179 690 129 640 C57 568 59 479 59 356 C59 233 57 144 129 72 C179 22 243 -6 321 -6 C397 -6 465 16 522 75 C572 127 590 189 590 292 L590 292 Z " />
<glyph glyph-name="H" unicode="H" horiz-adv-x="685" d="M602 0 L602 712 L463 712 L463 421 L222 421 L222 712 L83 712 L83 0 L222 0 L222 298 L463 298 L463 0 L602 0 Z " />
<glyph glyph-name="I" unicode="I" horiz-adv-x="305" d="M222 0 L222 712 L83 712 L83 0 L222 0 Z " />
<glyph glyph-name="J" unicode="J" horiz-adv-x="511" d="M437 234 L437 712 L298 712 L298 240 C298 158 254 118 186 118 C140 118 118 135 95 158 L3 67 C56 14 109 -6 186 -6 C318 -6 437 77 437 234 L437 234 Z " />
<glyph glyph-name="K" unicode="K" horiz-adv-x="665" d="M659 0 L406 429 L642 712 L473 712 L222 402 L222 712 L83 712 L83 0 L222 0 L222 214 L314 324 L497 0 L659 0 Z " />
<glyph glyph-name="L" unicode="L" horiz-adv-x="575" d="M545 0 L545 124 L222 124 L222 712 L83 712 L83 0 L545 0 Z " />
<glyph glyph-name="M" unicode="M" horiz-adv-x="811" d="M728 0 L728 712 L591 712 L406 327 L220 712 L83 712 L83 0 L222 0 L222 415 L359 145 L453 145 L589 415 L589 0 L728 0 Z " />
<glyph glyph-name="N" unicode="N" horiz-adv-x="711" d="M628 0 L628 712 L489 712 L489 276 L207 712 L83 712 L83 0 L222 0 L222 437 L504 0 L628 0 Z " />
<glyph glyph-name="O" unicode="O" horiz-adv-x="644" d="M585 356 C585 479 586 568 514 640 C464 690 403 718 322 718 C241 718 179 690 129 640 C57 568 59 479 59 356 C59 233 57 144 129 72 C179 22 241 -6 322 -6 C403 -6 464 22 514 72 C586 144 585 233 585 356 L585 356 Z M446 356 C446 219 438 186 411 156 C391 133 360 118 322 118 C284 118 252 133 232 156 C205 186 198 219 198 356 C198 493 205 526 232 556 C252 579 284 594 322 594 C360 594 391 579 411 556 C438 526 446 493 446 356 L446 356 Z " />
<glyph glyph-name="P" unicode="P" horiz-adv-x="628" d="M594 490 C594 611 506 712 359 712 L83 712 L83 0 L222 0 L222 268 L359 268 C506 268 594 369 594 490 L594 490 Z M455 490 C455 432 415 393 352 393 L222 393 L222 588 L352 588 C415 588 455 548 455 490 L455 490 Z " />
<glyph glyph-name="Q" unicode="Q" horiz-adv-x="643" d="M602 43 L541 104 C586 170 585 249 585 356 C585 479 586 568 514 640 C464 690 403 718 322 718 C241 718 179 690 129 640 C57 568 59 479 59 356 C59 233 57 144 129 72 C179 22 241 -6 322 -6 C378 -6 426 7 466 33 L529 -30 L602 43 Z M446 356 C446 284 444 243 433 212 L380 265 L306 192 L368 131 C355 122 339 118 322 118 C284 118 252 133 232 156 C205 186 198 219 198 356 C198 493 205 526 232 556 C252 579 284 594 322 594 C360 594 391 579 411 556 C438 526 446 493 446 356 L446 356 Z " />
<glyph glyph-name="R" unicode="R" horiz-adv-x="654" d="M622 0 L463 307 C532 332 593 394 593 494 C593 613 507 712 362 712 L83 712 L83 0 L222 0 L222 284 L322 284 L461 0 L622 0 Z M454 494 C454 439 414 400 353 400 L222 400 L222 588 L353 588 C414 588 454 549 454 494 L454 494 Z " />
<glyph glyph-name="S" unicode="S" horiz-adv-x="591" d="M543 210 C543 273 526 325 488 361 C458 389 417 407 352 416 L268 428 C239 432 216 443 202 456 C187 470 181 489 181 507 C181 556 217 597 291 597 C338 597 392 591 437 548 L525 635 C464 694 393 718 295 718 C141 718 47 629 47 502 C47 442 64 396 98 362 C130 331 175 312 236 303 L322 291 C355 286 371 279 385 266 C400 252 407 231 407 206 C407 149 363 118 281 118 C215 118 154 133 109 178 L19 88 C89 17 171 -6 279 -6 C428 -6 543 72 543 210 L543 210 Z " />
<glyph glyph-name="T" unicode="T" horiz-adv-x="571" d="M541 588 L541 712 L30 712 L30 588 L216 588 L216 0 L355 0 L355 588 L541 588 Z " />
<glyph glyph-name="U" unicode="U" horiz-adv-x="668" d="M596 244 L596 712 L458 712 L458 249 C458 167 409 118 334 118 C259 118 211 167 211 249 L211 712 L72 712 L72 244 C72 93 188 -6 334 -6 C480 -6 596 93 596 244 L596 244 Z " />
<glyph glyph-name="V" unicode="V" horiz-adv-x="581" d="M578 712 L433 712 L290 248 L147 712 L3 712 L238 0 L342 0 L578 712 Z " />
<glyph glyph-name="W" unicode="W" horiz-adv-x="887" d="M881 712 L736 712 L625 263 L495 712 L391 712 L261 263 L151 712 L6 712 L196 0 L312 0 L443 432 L574 0 L690 0 L881 712 Z " />
<glyph glyph-name="X" unicode="X" horiz-adv-x="603" d="M598 0 L376 365 L583 712 L426 712 L301 482 L177 712 L19 712 L226 365 L5 0 L164 0 L301 248 L439 0 L598 0 Z " />
<glyph glyph-name="Y" unicode="Y" horiz-adv-x="572" d="M569 712 L418 712 L287 425 L154 712 L3 712 L217 292 L217 0 L355 0 L355 292 L569 712 Z " />
<glyph glyph-name="Z" unicode="Z" horiz-adv-x="548" d="M508 0 L508 124 L203 124 L508 602 L508 712 L53 712 L53 588 L344 588 L40 112 L40 0 L508 0 Z " />
<glyph glyph-name="bracketleft" unicode="&#x5b;" horiz-adv-x="378" d="M337 -74 L337 43 L210 43 L210 669 L337 669 L337 786 L80 786 L80 -74 L337 -74 Z " />
<glyph glyph-name="backslash" unicode="&#x5c;" horiz-adv-x="403" d="M403 -74 L122 773 L0 773 L281 -74 L403 -74 Z " />
<glyph glyph-name="bracketright" unicode="&#x5d;" horiz-adv-x="378" d="M299 -74 L299 786 L42 786 L42 670 L169 670 L169 42 L42 42 L42 -74 L299 -74 Z " />
<glyph glyph-name="asciicircum" unicode="&#x5e;" horiz-adv-x="602" d="M539 389 L361 719 L241 719 L63 389 L199 389 L301 577 L403 389 L539 389 Z " />
<glyph glyph-name="underscore" unicode="&#x5f;" horiz-adv-x="602" d="M602 -178 L602 -91 L0 -91 L0 -178 L602 -178 Z " />
<glyph glyph-name="grave" unicode="&#x60;" horiz-adv-x="500" d="M305 604 L241 774 L104 774 L218 604 L305 604 Z " />
<glyph glyph-name="a" unicode="a" horiz-adv-x="534" d="M467 0 L467 343 C467 465 391 527 245 527 C158 527 108 511 57 455 L140 374 C167 405 190 417 240 417 C309 417 337 392 337 335 L337 309 L214 309 C93 309 36 241 36 158 C36 112 51 70 79 41 C110 10 153 -5 212 -5 C272 -5 305 10 340 45 L340 0 L467 0 Z M337 192 C337 160 332 139 318 126 C295 104 272 101 236 101 C185 101 161 125 161 161 C161 198 187 220 234 220 L337 220 L337 192 Z " />
<glyph glyph-name="b" unicode="b" horiz-adv-x="560" d="M509 261 C509 339 508 428 456 480 C427 509 380 527 329 527 C276 527 237 513 203 475 L203 712 L73 712 L73 0 L199 0 L199 49 C235 9 274 -6 329 -6 C380 -6 427 12 456 41 C508 93 509 183 509 261 L509 261 Z M379 261 C379 176 369 111 291 111 C213 111 203 176 203 261 C203 346 213 410 291 410 C369 410 379 346 379 261 L379 261 Z " />
<glyph glyph-name="c" unicode="c" horiz-adv-x="480" d="M452 65 L364 152 C337 123 314 111 280 111 C249 111 225 122 206 145 C186 170 177 206 177 261 C177 316 186 351 206 376 C225 399 249 410 280 410 C314 410 337 398 364 369 L452 457 C406 505 352 527 280 527 C176 527 47 472 47 261 C47 50 176 -6 280 -6 C352 -6 406 17 452 65 L452 65 Z " />
<glyph glyph-name="d" unicode="d" horiz-adv-x="561" d="M488 0 L488 712 L358 712 L358 475 C324 513 284 527 231 527 C180 527 133 509 104 480 C52 428 51 339 51 261 C51 183 52 93 104 41 C133 12 181 -6 232 -6 C287 -6 325 9 361 49 L361 0 L488 0 Z M358 261 C358 176 347 111 269 111 C191 111 181 176 181 261 C181 346 191 410 269 410 C347 410 358 346 358 261 L358 261 Z " />
<glyph glyph-name="e" unicode="e" horiz-adv-x="548" d="M501 220 L501 278 C501 421 419 527 274 527 C139 527 47 431 47 261 C47 50 165 -6 288 -6 C382 -6 433 23 486 76 L407 153 C374 120 346 104 289 104 C216 104 175 153 175 220 L501 220 Z M373 309 L175 309 C176 332 179 346 187 365 C201 396 230 419 274 419 C318 419 347 396 361 365 C369 346 372 332 373 309 L373 309 Z " />
<glyph glyph-name="f" unicode="f" horiz-adv-x="342" d="M315 407 L315 506 L219 506 L219 563 C219 593 233 610 264 610 L315 610 L315 720 L241 720 C135 720 89 645 89 571 L89 506 L35 506 L35 407 L89 407 L89 0 L219 0 L219 407 L315 407 Z " />
<glyph glyph-name="g" unicode="g" horiz-adv-x="555" d="M482 19 L482 521 L356 521 L356 472 C320 512 284 527 229 527 C178 527 133 510 104 481 C55 432 51 366 51 275 C51 184 55 117 104 68 C133 39 177 22 228 22 C279 22 318 36 352 74 L352 21 C352 -32 325 -87 247 -87 C203 -87 174 -75 145 -47 L64 -129 C118 -181 173 -197 253 -197 C393 -197 482 -106 482 19 L482 19 Z M352 275 C352 206 343 139 266 139 C189 139 181 206 181 275 C181 344 189 410 266 410 C343 410 352 344 352 275 L352 275 Z " />
<glyph glyph-name="h" unicode="h" horiz-adv-x="569" d="M502 0 L502 337 C502 447 442 527 328 527 C282 527 238 509 203 473 L203 712 L73 712 L73 0 L203 0 L203 318 C203 386 246 410 287 410 C328 410 372 387 372 318 L372 0 L502 0 Z " />
<glyph glyph-name="i" unicode="i" horiz-adv-x="275" d="M204 610 L204 716 L71 716 L71 610 L204 610 Z M203 0 L203 521 L73 521 L73 0 L203 0 Z " />
<glyph glyph-name="j" unicode="j" horiz-adv-x="275" d="M204 610 L204 716 L71 716 L71 610 L204 610 Z M203 -46 L203 521 L73 521 L73 -38 C73 -69 60 -85 27 -85 L-23 -85 L-23 -195 L51 -195 C158 -195 203 -120 203 -46 L203 -46 Z " />
<glyph glyph-name="k" unicode="k" horiz-adv-x="559" d="M547 0 L347 311 L533 521 L376 521 L203 308 L203 712 L73 712 L73 0 L203 0 L203 155 L258 217 L386 0 L547 0 Z " />
<glyph glyph-name="l" unicode="l" horiz-adv-x="325" d="M294 0 L294 110 L244 110 C211 110 198 126 198 157 L198 712 L68 712 L68 149 C68 75 113 0 220 0 L294 0 Z " />
<glyph glyph-name="m" unicode="m" horiz-adv-x="876" d="M809 0 L809 333 C809 390 794 439 752 481 C723 510 676 527 624 527 C559 527 512 507 468 461 C435 506 388 527 330 527 C282 527 234 508 200 473 L200 521 L73 521 L73 0 L203 0 L203 315 C203 386 249 410 290 410 C331 410 376 386 376 315 L376 0 L506 0 L506 318 C506 386 553 410 593 410 C634 410 679 386 679 315 L679 0 L809 0 Z " />
<glyph glyph-name="n" unicode="n" horiz-adv-x="573" d="M506 0 L506 333 C506 390 495 439 453 481 C424 510 382 527 330 527 C282 527 234 509 200 473 L200 521 L73 521 L73 0 L203 0 L203 315 C203 386 249 410 290 410 C331 410 376 386 376 315 L376 0 L506 0 Z " />
<glyph glyph-name="o" unicode="o" horiz-adv-x="543" d="M492 261 C492 355 480 414 433 463 C401 497 348 527 271 527 C194 527 142 497 110 463 C63 414 51 355 51 261 C51 166 63 107 110 58 C142 24 194 -6 271 -6 C348 -6 401 24 433 58 C480 107 492 166 492 261 L492 261 Z M362 261 C362 207 359 161 332 134 C317 119 297 111 271 111 C245 111 226 119 211 134 C184 161 181 207 181 261 C181 315 184 360 211 387 C226 402 245 410 271 410 C297 410 317 402 332 387 C359 360 362 315 362 261 L362 261 Z " />
<glyph glyph-name="p" unicode="p" horiz-adv-x="560" d="M509 261 C509 339 508 428 456 480 C427 509 380 527 329 527 C274 527 235 512 199 472 L199 521 L73 521 L73 -191 L203 -191 L203 46 C237 8 276 -6 329 -6 C380 -6 427 12 456 41 C508 93 509 183 509 261 L509 261 Z M379 261 C379 176 369 111 291 111 C213 111 203 176 203 261 C203 346 213 410 291 410 C369 410 379 346 379 261 L379 261 Z " />
<glyph glyph-name="q" unicode="q" horiz-adv-x="561" d="M488 -191 L488 521 L361 521 L361 472 C325 512 287 527 232 527 C181 527 133 509 104 480 C52 428 51 339 51 261 C51 183 52 93 104 41 C133 12 180 -6 231 -6 C284 -6 324 8 358 46 L358 -191 L488 -191 Z M358 261 C358 176 347 111 269 111 C191 111 181 176 181 261 C181 346 191 410 269 410 C347 410 358 346 358 261 L358 261 Z " />
<glyph glyph-name="r" unicode="r" horiz-adv-x="455" d="M454 478 C418 514 382 527 331 527 C275 527 225 501 200 471 L200 521 L73 521 L73 0 L203 0 L203 314 C203 380 247 410 287 410 C319 410 336 399 356 379 L454 478 Z " />
<glyph glyph-name="s" unicode="s" horiz-adv-x="501" d="M465 164 C465 252 413 307 310 317 L228 325 C182 329 174 351 174 370 C174 396 196 420 248 420 C293 420 339 412 369 385 L449 466 C399 513 331 527 250 527 C144 527 49 469 49 361 C49 265 107 224 201 215 L283 207 C324 203 338 185 338 159 C338 120 291 105 246 105 C206 105 150 111 107 154 L22 69 C88 3 162 -6 244 -6 C367 -6 465 49 465 164 L465 164 Z " />
<glyph glyph-name="t" unicode="t" horiz-adv-x="352" d="M307 0 L307 110 L260 110 C229 110 215 127 215 157 L215 407 L307 407 L307 506 L215 506 L215 660 L85 660 L85 506 L30 506 L30 407 L85 407 L85 149 C85 75 130 0 236 0 L307 0 Z " />
<glyph glyph-name="u" unicode="u" horiz-adv-x="573" d="M500 0 L500 521 L370 521 L370 206 C370 135 324 111 283 111 C242 111 197 135 197 206 L197 521 L67 521 L67 188 C67 131 78 82 120 40 C149 11 191 -6 243 -6 C291 -6 339 12 373 48 L373 0 L500 0 Z " />
<glyph glyph-name="v" unicode="v" horiz-adv-x="493" d="M489 521 L352 521 L247 199 L141 521 L4 521 L196 0 L298 0 L489 521 Z " />
<glyph glyph-name="w" unicode="w" horiz-adv-x="759" d="M755 521 L618 521 L534 199 L427 521 L332 521 L226 199 L142 521 L4 521 L164 0 L271 0 L380 327 L489 0 L596 0 L755 521 Z " />
<glyph glyph-name="x" unicode="x" horiz-adv-x="527" d="M515 0 L335 266 L508 521 L352 521 L263 372 L175 521 L19 521 L192 266 L12 0 L168 0 L263 156 L359 0 L515 0 Z " />
<glyph glyph-name="y" unicode="y" horiz-adv-x="494" d="M490 521 L353 521 L249 199 L141 521 L4 521 L182 37 L160 -27 C147 -65 132 -74 95 -74 L65 -74 L65 -191 L116 -191 C159 -191 198 -181 228 -151 C244 -135 256 -113 267 -84 L490 521 Z " />
<glyph glyph-name="z" unicode="z" horiz-adv-x="478" d="M434 0 L434 117 L200 117 L434 422 L434 521 L50 521 L50 404 L268 404 L37 99 L37 0 L434 0 Z " />
<glyph glyph-name="braceleft" unicode="&#x7b;" horiz-adv-x="457" d="M414 -74 L414 43 L361 43 C331 43 315 46 304 57 C293 69 288 87 288 121 L288 256 C288 328 245 346 219 356 C245 366 288 384 288 456 L288 591 C288 625 293 643 304 655 C315 666 331 669 361 669 L414 669 L414 786 L312 786 C260 786 224 773 200 749 C171 720 158 683 158 638 L158 493 C158 465 153 445 141 433 C130 422 113 414 89 414 L43 414 L43 298 L89 298 C113 298 130 290 141 279 C153 267 158 247 158 219 L158 74 C158 29 171 -8 200 -37 C224 -61 260 -74 312 -74 L414 -74 Z " />
<glyph glyph-name="bar" unicode="&#x7c;" horiz-adv-x="350" d="M240 -74 L240 786 L110 786 L110 -74 L240 -74 Z " />
<glyph glyph-name="braceright" unicode="&#x7d;" horiz-adv-x="457" d="M414 298 L414 414 L368 414 C344 414 327 422 316 433 C304 445 299 465 299 493 L299 638 C299 683 286 720 257 749 C233 773 197 786 145 786 L43 786 L43 669 L96 669 C126 669 142 666 153 655 C164 643 169 625 169 591 L169 456 C169 384 212 366 238 356 C212 346 169 328 169 256 L169 121 C169 87 164 69 153 57 C142 46 126 43 96 43 L43 43 L43 -74 L145 -74 C197 -74 233 -61 257 -37 C286 -8 299 29 299 74 L299 219 C299 247 304 267 316 279 C327 290 344 298 368 298 L414 298 Z " />
<glyph glyph-name="asciitilde" unicode="&#x7e;" horiz-adv-x="606" d="M569 281 L486 363 C449 326 426 321 399 321 C370 321 347 330 318 345 C275 368 242 379 201 379 C140 379 99 355 37 293 L119 211 C156 248 178 253 205 253 C234 253 258 244 287 229 C330 206 363 195 404 195 C465 195 507 219 569 281 L569 281 Z " />
<glyph glyph-name="nbspace" unicode="&#xa0;" horiz-adv-x="232" d="" />
<glyph glyph-name="exclamdown" unicode="&#xa1;" horiz-adv-x="347" d="M224 388 L224 521 L87 521 L87 388 L224 388 Z M236 -191 L204 298 L107 298 L75 -191 L236 -191 Z " />
<glyph glyph-name="cent" unicode="&#xa2;" horiz-adv-x="499" d="M469 180 L383 264 C363 243 346 230 319 223 L319 509 C346 502 363 489 383 468 L469 552 C431 592 389 617 333 627 L333 712 L232 712 L232 627 C127 606 47 520 47 366 C47 212 127 126 232 105 L232 0 L333 0 L333 105 C389 115 431 140 469 180 L469 180 Z M246 225 C231 229 218 238 208 251 C188 276 177 311 177 366 C177 421 188 456 208 481 C218 493 231 503 246 507 L246 225 Z " />
<glyph glyph-name="sterling" unicode="&#xa3;" horiz-adv-x="579" d="M534 0 L534 124 L239 124 L239 297 L352 297 L352 397 L239 397 L239 472 C239 554 284 594 352 594 C398 594 420 577 443 554 L534 645 C481 698 429 718 352 718 C220 718 101 635 101 478 L101 397 L40 397 L40 297 L101 297 L101 0 L534 0 Z " />
<glyph glyph-name="currency" unicode="&#xa4;" horiz-adv-x="669" d="M610 96 L537 169 C557 203 569 243 569 286 C569 329 557 369 537 403 L610 476 L525 562 L451 489 C417 509 377 521 334 521 C291 521 252 509 218 489 L144 562 L58 476 L132 403 C112 369 99 329 99 286 C99 243 112 203 132 169 L58 96 L144 10 L218 83 C252 63 291 51 334 51 C377 51 417 63 451 83 L525 10 L610 96 Z M452 286 C452 221 399 169 334 169 C269 169 217 221 217 286 C217 351 269 403 334 403 C399 403 452 351 452 286 L452 286 Z " />
<glyph glyph-name="yen" unicode="&#xa5;" horiz-adv-x="571" d="M568 712 L418 712 L286 424 L154 712 L3 712 L140 442 L65 442 L65 342 L191 342 L217 292 L217 241 L65 241 L65 141 L217 141 L217 0 L355 0 L355 141 L506 141 L506 241 L355 241 L355 292 L381 342 L506 342 L506 442 L432 442 L568 712 Z " />
<glyph glyph-name="brokenbar" unicode="&#xa6;" horiz-adv-x="353" d="M240 436 L240 786 L110 786 L110 436 L240 436 Z M240 -74 L240 276 L110 276 L110 -74 L240 -74 Z " />
<glyph glyph-name="section" unicode="&#xa7;" horiz-adv-x="531" d="M473 274 C473 379 423 431 327 462 L265 482 C222 496 198 517 198 548 C198 582 222 607 268 607 C307 607 336 590 338 546 L460 546 C459 642 399 718 268 718 C138 718 76 635 76 545 C76 472 110 436 152 414 C113 393 61 339 61 265 C61 159 111 109 207 77 L269 56 C323 38 339 9 339 -18 C339 -56 312 -82 266 -82 C221 -82 194 -56 192 -19 L67 -19 C69 -146 169 -197 266 -197 C365 -197 464 -137 464 -14 C464 63 427 103 383 125 C420 146 473 200 473 274 L473 274 Z M348 269 C348 233 335 214 323 202 C311 190 292 181 267 181 C242 181 222 190 210 202 C198 214 186 233 186 269 C186 304 196 323 210 337 C222 349 242 358 267 358 C292 358 310 349 323 337 C337 323 348 303 348 269 L348 269 Z " />
<glyph glyph-name="dieresis" unicode="&#xa8;" horiz-adv-x="500" d="M416 606 L416 731 L305 731 L305 606 L416 606 Z M195 606 L195 731 L84 731 L84 606 L195 606 Z " />
<glyph glyph-name="copyright" unicode="&#xa9;" horiz-adv-x="844" d="M784 356 C784 556 622 718 422 718 C222 718 60 556 60 356 C60 156 222 -6 422 -6 C622 -6 784 156 784 356 L784 356 Z M697 356 C697 195 577 75 422 75 C267 75 146 195 146 356 C146 517 267 637 422 637 C577 637 697 517 697 356 L697 356 Z M561 212 L505 268 C478 245 459 236 429 236 C366 236 335 283 335 356 C335 429 366 476 429 476 C459 476 478 467 505 444 L561 500 C523 533 485 553 429 553 C329 553 250 484 250 356 C250 228 329 160 429 160 C485 160 524 179 561 212 L561 212 Z " />
<glyph glyph-name="ordfeminine" unicode="&#xaa;" horiz-adv-x="454" d="M392 296 L392 570 C392 667 331 717 215 717 C146 717 105 704 64 659 L131 594 C153 619 171 628 210 628 C265 628 287 608 287 563 L287 543 L190 543 C93 543 48 488 48 422 C48 385 60 353 83 330 C107 305 141 292 188 292 C236 292 261 304 289 332 L289 296 L392 296 Z M287 449 C287 424 283 408 272 398 C255 382 236 379 207 379 C168 379 150 397 150 425 C150 453 169 472 206 472 L287 472 L287 449 Z " />
<glyph glyph-name="guillemotleft" unicode="&#xab;" horiz-adv-x="628" d="M562 27 L562 182 L466 275 L562 368 L562 523 L312 275 L562 27 Z M283 27 L283 182 L189 275 L283 368 L283 523 L34 275 L283 27 Z " />
<glyph glyph-name="logicalnot" unicode="&#xac;" horiz-adv-x="543" d="M497 94 L497 360 L46 360 L46 239 L376 239 L376 94 L497 94 Z " />
<glyph glyph-name="registered" unicode="&#xae;" horiz-adv-x="844" d="M784 356 C784 556 622 718 422 718 C222 718 60 556 60 356 C60 156 222 -6 422 -6 C622 -6 784 156 784 356 L784 356 Z M698 356 C698 195 578 75 422 75 C266 75 146 195 146 356 C146 517 266 637 422 637 C578 637 698 517 698 356 L698 356 Z M585 164 L504 326 C541 341 575 375 575 428 C575 492 525 549 447 549 L290 549 L290 164 L376 164 L376 313 L417 313 L487 164 L585 164 Z M489 428 C489 401 468 378 436 378 L376 378 L376 478 L436 478 C468 478 489 455 489 428 L489 428 Z " />
<glyph glyph-name="macron" unicode="&#xaf;" horiz-adv-x="500" d="M408 630 L408 717 L92 717 L92 630 L408 630 Z " />
<glyph glyph-name="degree" unicode="&#xb0;" horiz-adv-x="478" d="M423 542 C423 644 341 727 239 727 C137 727 55 644 55 542 C55 440 137 358 239 358 C341 358 423 440 423 542 L423 542 Z M318 542 C318 497 283 462 239 462 C195 462 160 497 160 542 C160 587 194 622 238 622 C282 622 318 587 318 542 L318 542 Z " />
<glyph glyph-name="plusminus" unicode="&#xb1;" horiz-adv-x="543" d="M493 341 L493 462 L333 462 L333 623 L211 623 L211 462 L50 462 L50 341 L211 341 L211 180 L333 180 L333 341 L493 341 Z M493 0 L493 122 L50 122 L50 0 L493 0 Z " />
<glyph glyph-name="twosuperior" unicode="&#xb2;" horiz-adv-x="358" d="M315 285 L315 370 L158 370 L263 484 C296 520 315 544 315 588 C315 668 257 716 179 716 C104 716 43 670 43 587 L137 587 C137 622 159 631 179 631 C206 631 221 614 221 588 C221 570 215 558 199 541 L43 370 L43 285 L315 285 Z " />
<glyph glyph-name="threesuperior" unicode="&#xb3;" horiz-adv-x="368" d="M325 412 C325 463 300 490 275 506 C298 520 320 543 320 590 C320 664 262 716 184 716 C109 716 48 668 48 589 L142 589 C142 616 161 631 184 631 C206 631 226 616 226 587 C226 566 213 544 182 544 L169 544 L169 463 L182 463 C212 463 231 443 231 415 C231 383 212 365 184 365 C158 365 137 381 137 413 L43 413 C43 319 113 281 184 281 C259 281 325 323 325 412 L325 412 Z " />
<glyph glyph-name="acute" unicode="&#xb4;" horiz-adv-x="500" d="M396 774 L259 774 L195 604 L282 604 L396 774 Z " />
<glyph glyph-name="mu" unicode="&#xb5;" horiz-adv-x="576" d="M503 0 L503 521 L373 521 L373 206 C373 135 327 111 286 111 C245 111 200 135 200 206 L200 521 L70 521 L70 -191 L200 -191 L200 8 C212 -1 227 -6 246 -6 C294 -6 342 12 376 48 L376 0 L503 0 Z " />
<glyph glyph-name="paragraph" unicode="&#xb6;" horiz-adv-x="668" d="M585 -191 L585 712 L266 712 C128 712 35 640 35 509 C35 398 125 308 225 308 L225 -191 L355 -191 L355 588 L455 588 L455 -191 L585 -191 Z " />
<glyph glyph-name="periodcentered" unicode="&#xb7;" horiz-adv-x="285" d="M217 212 L217 360 L68 360 L68 212 L217 212 Z " />
<glyph glyph-name="cedilla" unicode="&#xb8;" horiz-adv-x="500" d="M325 -60 L229 -60 L160 -206 L281 -206 L325 -60 Z " />
<glyph glyph-name="onesuperior" unicode="&#xb9;" horiz-adv-x="292" d="M223 285 L223 712 L128 712 L38 634 L38 528 L128 606 L128 285 L223 285 Z " />
<glyph glyph-name="ordmasculine" unicode="&#xba;" horiz-adv-x="462" d="M407 504 C407 579 397 626 359 666 C333 693 292 717 231 717 C170 717 129 693 103 666 C65 626 55 579 55 504 C55 428 65 383 103 343 C129 316 170 292 231 292 C292 292 333 316 359 343 C397 383 407 428 407 504 L407 504 Z M302 504 C302 462 300 425 279 404 C267 392 251 386 231 386 C211 386 195 392 183 404 C162 425 160 462 160 504 C160 546 162 584 183 605 C195 617 211 623 231 623 C251 623 267 617 279 605 C300 584 302 546 302 504 L302 504 Z " />
<glyph glyph-name="guillemotright" unicode="&#xbb;" horiz-adv-x="628" d="M595 275 L345 523 L345 368 L439 275 L345 182 L345 27 L595 275 Z M316 275 L67 523 L67 368 L162 275 L67 182 L67 27 L316 275 Z " />
<glyph glyph-name="onequarter" unicode="&#xbc;" horiz-adv-x="836" d="M796 57 L796 146 L763 146 L763 208 L673 208 L673 146 L599 146 L743 427 L640 427 L497 146 L497 57 L673 57 L673 0 L763 0 L763 57 L796 57 Z M625 712 L523 712 L186 0 L288 0 L625 712 Z M223 285 L223 712 L128 712 L38 634 L38 528 L128 606 L128 285 L223 285 Z " />
<glyph glyph-name="onehalf" unicode="&#xbd;" horiz-adv-x="862" d="M819 0 L819 85 L662 85 L767 199 C800 235 819 259 819 303 C819 383 761 431 683 431 C608 431 547 385 547 302 L642 302 C642 337 663 346 683 346 C710 346 726 329 726 303 C726 285 719 273 703 256 L547 85 L547 0 L819 0 Z M620 712 L519 712 L182 0 L283 0 L620 712 Z M223 285 L223 712 L128 712 L38 634 L38 528 L128 606 L128 285 L223 285 Z " />
<glyph glyph-name="threequarters" unicode="&#xbe;" horiz-adv-x="865" d="M825 57 L825 146 L792 146 L792 208 L702 208 L702 146 L628 146 L772 427 L669 427 L526 146 L526 57 L702 57 L702 0 L792 0 L792 57 L825 57 Z M657 712 L555 712 L218 0 L320 0 L657 712 Z M325 412 C325 463 300 490 275 506 C298 520 320 543 320 590 C320 664 262 716 184 716 C109 716 48 668 48 589 L142 589 C142 616 161 631 184 631 C206 631 226 616 226 587 C226 566 213 544 182 544 L169 544 L169 463 L182 463 C212 463 231 443 231 415 C231 383 212 365 184 365 C158 365 137 381 137 413 L43 413 C43 319 113 281 184 281 C259 281 325 323 325 412 L325 412 Z " />
<glyph glyph-name="questiondown" unicode="&#xbf;" horiz-adv-x="523" d="M311 388 L311 521 L173 521 L173 388 L311 388 Z M457 4 L327 4 C327 -42 299 -80 246 -80 C196 -80 166 -45 166 2 C166 24 179 48 195 69 L269 164 C295 198 307 225 307 268 L307 298 L177 298 L177 278 C177 261 169 240 159 227 L85 128 C57 91 36 53 36 3 C36 -124 133 -197 246 -197 C362 -197 457 -120 457 4 L457 4 Z " />
<glyph glyph-name="Agrave" unicode="&#xc0;" horiz-adv-x="638" d="M633 0 L373 712 L264 712 L5 0 L150 0 L193 126 L446 126 L488 0 L633 0 Z M409 243 L232 243 L322 502 L409 243 Z M372 781 L308 951 L171 951 L285 781 L372 781 Z " />
<glyph glyph-name="Aacute" unicode="&#xc1;" horiz-adv-x="638" d="M633 0 L373 712 L264 712 L5 0 L150 0 L193 126 L446 126 L488 0 L633 0 Z M409 243 L232 243 L322 502 L409 243 Z M463 951 L326 951 L262 781 L349 781 L463 951 Z " />
<glyph glyph-name="Acircumflex" unicode="&#xc2;" horiz-adv-x="638" d="M633 0 L373 712 L264 712 L5 0 L150 0 L193 126 L446 126 L488 0 L633 0 Z M409 243 L232 243 L322 502 L409 243 Z M501 781 L369 950 L265 950 L133 781 L234 781 L317 872 L400 781 L501 781 Z " />
<glyph glyph-name="Atilde" unicode="&#xc3;" horiz-adv-x="638" d="M633 0 L373 712 L264 712 L5 0 L150 0 L193 126 L446 126 L488 0 L633 0 Z M409 243 L232 243 L322 502 L409 243 Z M497 851 L439 908 C413 882 397 879 380 879 C360 879 345 885 325 897 C297 914 278 920 248 920 C209 920 180 905 136 861 L192 804 C218 830 234 833 251 833 C271 833 288 826 307 815 C335 799 355 792 384 792 C422 792 453 807 497 851 L497 851 Z " />
<glyph glyph-name="Adieresis" unicode="&#xc4;" horiz-adv-x="638" d="M633 0 L373 712 L264 712 L5 0 L150 0 L193 126 L446 126 L488 0 L633 0 Z M409 243 L232 243 L322 502 L409 243 Z M483 783 L483 908 L372 908 L372 783 L483 783 Z M262 783 L262 908 L151 908 L151 783 L262 783 Z " />
<glyph glyph-name="Aring" unicode="&#xc5;" horiz-adv-x="638" d="M633 0 L373 712 L264 712 L5 0 L150 0 L193 126 L446 126 L488 0 L633 0 Z M409 243 L232 243 L322 502 L409 243 Z M448 884 C448 957 389 1015 317 1015 C245 1015 186 956 186 884 C186 812 245 753 317 753 C389 753 448 812 448 884 L448 884 Z M375 884 C375 852 349 825 317 825 C285 825 259 852 259 884 C259 916 285 942 317 942 C349 942 375 916 375 884 L375 884 Z " />
<glyph glyph-name="AE" unicode="&#xc6;" horiz-adv-x="979" d="M926 0 L926 124 L596 124 L596 296 L878 296 L878 420 L596 420 L596 588 L926 588 L926 712 L375 712 L3 0 L152 0 L233 156 L458 156 L458 0 L926 0 Z M458 273 L293 273 L458 588 L458 273 Z " />
<glyph glyph-name="Ccedilla" unicode="&#xc7;" horiz-adv-x="620" d="M583 219 L442 219 C428 162 392 118 322 118 C284 118 253 132 233 155 C206 185 198 219 198 356 C198 493 206 527 233 557 C253 580 284 594 322 594 C392 594 428 550 442 493 L583 493 C558 642 454 718 321 718 C243 718 179 690 129 640 C57 568 59 479 59 356 C59 233 57 144 129 72 C179 22 243 -6 321 -6 C453 -6 558 70 583 219 L583 219 Z M379 -60 L283 -60 L214 -206 L335 -206 L379 -60 Z " />
<glyph glyph-name="Egrave" unicode="&#xc8;" horiz-adv-x="605" d="M552 0 L552 124 L222 124 L222 297 L503 297 L503 421 L222 421 L222 588 L552 588 L552 712 L83 712 L83 0 L552 0 Z M365 781 L301 951 L164 951 L278 781 L365 781 Z " />
<glyph glyph-name="Eacute" unicode="&#xc9;" horiz-adv-x="605" d="M552 0 L552 124 L222 124 L222 297 L503 297 L503 421 L222 421 L222 588 L552 588 L552 712 L83 712 L83 0 L552 0 Z M455 951 L318 951 L254 781 L341 781 L455 951 Z " />
<glyph glyph-name="Ecircumflex" unicode="&#xca;" horiz-adv-x="605" d="M552 0 L552 124 L222 124 L222 297 L503 297 L503 421 L222 421 L222 588 L552 588 L552 712 L83 712 L83 0 L552 0 Z M494 781 L362 950 L258 950 L126 781 L227 781 L310 872 L393 781 L494 781 Z " />
<glyph glyph-name="Edieresis" unicode="&#xcb;" horiz-adv-x="605" d="M552 0 L552 124 L222 124 L222 297 L503 297 L503 421 L222 421 L222 588 L552 588 L552 712 L83 712 L83 0 L552 0 Z M476 783 L476 908 L365 908 L365 783 L476 783 Z M255 783 L255 908 L144 908 L144 783 L255 783 Z " />
<glyph glyph-name="Igrave" unicode="&#xcc;" horiz-adv-x="305" d="M222 0 L222 712 L83 712 L83 0 L222 0 Z M234 781 L170 951 L33 951 L147 781 L234 781 Z " />
<glyph glyph-name="Iacute" unicode="&#xcd;" horiz-adv-x="305" d="M222 0 L222 712 L83 712 L83 0 L222 0 Z M275 951 L138 951 L74 781 L161 781 L275 951 Z " />
<glyph glyph-name="Icircumflex" unicode="&#xce;" horiz-adv-x="305" d="M222 0 L222 712 L83 712 L83 0 L222 0 Z M335 781 L203 950 L99 950 L-33 781 L68 781 L151 872 L234 781 L335 781 Z " />
<glyph glyph-name="Idieresis" unicode="&#xcf;" horiz-adv-x="305" d="M222 0 L222 712 L83 712 L83 0 L222 0 Z M319 783 L319 908 L208 908 L208 783 L319 783 Z M98 783 L98 908 L-13 908 L-13 783 L98 783 Z " />
<glyph glyph-name="Eth" unicode="&#xd0;" horiz-adv-x="682" d="M623 356 C623 483 627 552 560 628 C511 684 442 712 363 712 L106 712 L106 413 L37 413 L37 307 L106 307 L106 0 L361 0 C444 0 513 31 560 83 C626 156 623 225 623 356 L623 356 Z M484 354 C484 227 481 205 461 176 C439 143 403 123 350 123 L245 123 L245 307 L361 307 L361 413 L245 413 L245 589 L350 589 C402 589 435 571 459 537 C480 507 484 479 484 354 L484 354 Z " />
<glyph glyph-name="Ntilde" unicode="&#xd1;" horiz-adv-x="711" d="M628 0 L628 712 L489 712 L489 276 L207 712 L83 712 L83 0 L222 0 L222 437 L504 0 L628 0 Z M536 851 L478 908 C452 882 436 879 419 879 C399 879 384 885 364 897 C336 914 317 920 287 920 C248 920 219 905 175 861 L231 804 C257 830 273 833 290 833 C310 833 327 826 346 815 C374 799 394 792 423 792 C461 792 492 807 536 851 L536 851 Z " />
<glyph glyph-name="Ograve" unicode="&#xd2;" horiz-adv-x="644" d="M585 356 C585 479 586 568 514 640 C464 690 403 718 322 718 C241 718 179 690 129 640 C57 568 59 479 59 356 C59 233 57 144 129 72 C179 22 241 -6 322 -6 C403 -6 464 22 514 72 C586 144 585 233 585 356 L585 356 Z M446 356 C446 219 438 186 411 156 C391 133 360 118 322 118 C284 118 252 133 232 156 C205 186 198 219 198 356 C198 493 205 526 232 556 C252 579 284 594 322 594 C360 594 391 579 411 556 C438 526 446 493 446 356 L446 356 Z M377 781 L313 951 L176 951 L290 781 L377 781 Z " />
<glyph glyph-name="Oacute" unicode="&#xd3;" horiz-adv-x="644" d="M585 356 C585 479 586 568 514 640 C464 690 403 718 322 718 C241 718 179 690 129 640 C57 568 59 479 59 356 C59 233 57 144 129 72 C179 22 241 -6 322 -6 C403 -6 464 22 514 72 C586 144 585 233 585 356 L585 356 Z M446 356 C446 219 438 186 411 156 C391 133 360 118 322 118 C284 118 252 133 232 156 C205 186 198 219 198 356 C198 493 205 526 232 556 C252 579 284 594 322 594 C360 594 391 579 411 556 C438 526 446 493 446 356 L446 356 Z M468 951 L331 951 L267 781 L354 781 L468 951 Z " />
<glyph glyph-name="Ocircumflex" unicode="&#xd4;" horiz-adv-x="644" d="M585 356 C585 479 586 568 514 640 C464 690 403 718 322 718 C241 718 179 690 129 640 C57 568 59 479 59 356 C59 233 57 144 129 72 C179 22 241 -6 322 -6 C403 -6 464 22 514 72 C586 144 585 233 585 356 L585 356 Z M446 356 C446 219 438 186 411 156 C391 133 360 118 322 118 C284 118 252 133 232 156 C205 186 198 219 198 356 C198 493 205 526 232 556 C252 579 284 594 322 594 C360 594 391 579 411 556 C438 526 446 493 446 356 L446 356 Z M506 781 L374 950 L270 950 L138 781 L239 781 L322 872 L405 781 L506 781 Z " />
<glyph glyph-name="Otilde" unicode="&#xd5;" horiz-adv-x="644" d="M585 356 C585 479 586 568 514 640 C464 690 403 718 322 718 C241 718 179 690 129 640 C57 568 59 479 59 356 C59 233 57 144 129 72 C179 22 241 -6 322 -6 C403 -6 464 22 514 72 C586 144 585 233 585 356 L585 356 Z M446 356 C446 219 438 186 411 156 C391 133 360 118 322 118 C284 118 252 133 232 156 C205 186 198 219 198 356 C198 493 205 526 232 556 C252 579 284 594 322 594 C360 594 391 579 411 556 C438 526 446 493 446 356 L446 356 Z M502 851 L444 908 C418 882 402 879 385 879 C365 879 350 885 330 897 C302 914 283 920 253 920 C214 920 185 905 141 861 L197 804 C223 830 239 833 256 833 C276 833 293 826 312 815 C340 799 360 792 389 792 C427 792 458 807 502 851 L502 851 Z " />
<glyph glyph-name="Odieresis" unicode="&#xd6;" horiz-adv-x="644" d="M585 356 C585 479 586 568 514 640 C464 690 403 718 322 718 C241 718 179 690 129 640 C57 568 59 479 59 356 C59 233 57 144 129 72 C179 22 241 -6 322 -6 C403 -6 464 22 514 72 C586 144 585 233 585 356 L585 356 Z M446 356 C446 219 438 186 411 156 C391 133 360 118 322 118 C284 118 252 133 232 156 C205 186 198 219 198 356 C198 493 205 526 232 556 C252 579 284 594 322 594 C360 594 391 579 411 556 C438 526 446 493 446 356 L446 356 Z M488 783 L488 908 L377 908 L377 783 L488 783 Z M267 783 L267 908 L156 908 L156 783 L267 783 Z " />
<glyph glyph-name="multiply" unicode="&#xd7;" horiz-adv-x="543" d="M494 145 L353 286 L494 427 L412 509 L271 368 L131 509 L49 427 L190 286 L49 145 L131 63 L271 204 L412 63 L494 145 Z " />
<glyph glyph-name="Oslash" unicode="&#xd8;" horiz-adv-x="652" d="M585 356 C585 479 586 568 514 640 L509 645 L562 756 L464 756 L435 696 C402 711 365 718 322 718 C241 718 179 690 129 640 C57 568 59 479 59 356 C59 233 57 144 129 72 L134 67 L81 -44 L180 -44 L209 16 C242 1 279 -6 322 -6 C403 -6 464 22 514 72 C586 144 585 233 585 356 L585 356 Z M385 578 L207 205 C200 234 198 278 198 356 C198 493 205 526 232 556 C252 579 284 594 322 594 C346 594 367 589 385 578 L385 578 Z M446 356 C446 219 438 186 411 156 C391 133 360 118 322 118 C298 118 276 124 258 135 L436 507 C443 478 446 434 446 356 L446 356 Z " />
<glyph glyph-name="Ugrave" unicode="&#xd9;" horiz-adv-x="668" d="M596 244 L596 712 L458 712 L458 249 C458 167 409 118 334 118 C259 118 211 167 211 249 L211 712 L72 712 L72 244 C72 93 188 -6 334 -6 C480 -6 596 93 596 244 L596 244 Z M389 781 L325 951 L188 951 L302 781 L389 781 Z " />
<glyph glyph-name="Uacute" unicode="&#xda;" horiz-adv-x="668" d="M596 244 L596 712 L458 712 L458 249 C458 167 409 118 334 118 C259 118 211 167 211 249 L211 712 L72 712 L72 244 C72 93 188 -6 334 -6 C480 -6 596 93 596 244 L596 244 Z M480 951 L343 951 L279 781 L366 781 L480 951 Z " />
<glyph glyph-name="Ucircumflex" unicode="&#xdb;" horiz-adv-x="668" d="M596 244 L596 712 L458 712 L458 249 C458 167 409 118 334 118 C259 118 211 167 211 249 L211 712 L72 712 L72 244 C72 93 188 -6 334 -6 C480 -6 596 93 596 244 L596 244 Z M518 781 L386 950 L282 950 L150 781 L251 781 L334 872 L417 781 L518 781 Z " />
<glyph glyph-name="Udieresis" unicode="&#xdc;" horiz-adv-x="668" d="M596 244 L596 712 L458 712 L458 249 C458 167 409 118 334 118 C259 118 211 167 211 249 L211 712 L72 712 L72 244 C72 93 188 -6 334 -6 C480 -6 596 93 596 244 L596 244 Z M500 783 L500 908 L389 908 L389 783 L500 783 Z M279 783 L279 908 L168 908 L168 783 L279 783 Z " />
<glyph glyph-name="Yacute" unicode="&#xdd;" horiz-adv-x="572" d="M569 712 L418 712 L287 425 L154 712 L3 712 L217 292 L217 0 L355 0 L355 292 L569 712 Z M431 951 L294 951 L230 781 L317 781 L431 951 Z " />
<glyph glyph-name="Thorn" unicode="&#xde;" horiz-adv-x="633" d="M594 360 C594 481 506 581 359 581 L222 581 L222 712 L83 712 L83 0 L222 0 L222 138 L359 138 C506 138 594 239 594 360 L594 360 Z M455 360 C455 302 415 262 352 262 L222 262 L222 457 L352 457 C415 457 455 418 455 360 L455 360 Z " />
<glyph glyph-name="germandbls" unicode="&#xdf;" horiz-adv-x="574" d="M516 161 L516 321 C516 384 491 411 454 430 C485 449 515 482 515 543 C515 664 424 718 298 718 C169 718 73 660 73 521 L73 0 L203 0 L203 511 C203 570 226 605 296 605 C327 605 351 598 366 584 C378 573 385 557 385 539 C385 497 357 479 325 479 L297 479 L297 377 L325 377 C344 377 360 371 370 361 C380 351 385 337 385 316 L385 172 C385 151 379 135 368 125 C357 115 343 110 323 110 L297 110 L297 0 L349 0 C407 0 447 14 475 42 C503 69 516 110 516 161 L516 161 Z " />
<glyph glyph-name="agrave" unicode="&#xe0;" horiz-adv-x="534" d="M467 0 L467 343 C467 465 391 527 245 527 C158 527 108 511 57 455 L140 374 C167 405 190 417 240 417 C309 417 337 392 337 335 L337 309 L214 309 C93 309 36 241 36 158 C36 112 51 70 79 41 C110 10 153 -5 212 -5 C272 -5 305 10 340 45 L340 0 L467 0 Z M337 192 C337 160 332 139 318 126 C295 104 272 101 236 101 C185 101 161 125 161 161 C161 198 187 220 234 220 L337 220 L337 192 Z M316 604 L252 774 L115 774 L229 604 L316 604 Z " />
<glyph glyph-name="aacute" unicode="&#xe1;" horiz-adv-x="534" d="M467 0 L467 343 C467 465 391 527 245 527 C158 527 108 511 57 455 L140 374 C167 405 190 417 240 417 C309 417 337 392 337 335 L337 309 L214 309 C93 309 36 241 36 158 C36 112 51 70 79 41 C110 10 153 -5 212 -5 C272 -5 305 10 340 45 L340 0 L467 0 Z M337 192 C337 160 332 139 318 126 C295 104 272 101 236 101 C185 101 161 125 161 161 C161 198 187 220 234 220 L337 220 L337 192 Z M407 774 L270 774 L206 604 L293 604 L407 774 Z " />
<glyph glyph-name="acircumflex" unicode="&#xe2;" horiz-adv-x="534" d="M467 0 L467 343 C467 465 391 527 245 527 C158 527 108 511 57 455 L140 374 C167 405 190 417 240 417 C309 417 337 392 337 335 L337 309 L214 309 C93 309 36 241 36 158 C36 112 51 70 79 41 C110 10 153 -5 212 -5 C272 -5 305 10 340 45 L340 0 L467 0 Z M337 192 C337 160 332 139 318 126 C295 104 272 101 236 101 C185 101 161 125 161 161 C161 198 187 220 234 220 L337 220 L337 192 Z M445 604 L313 773 L209 773 L77 604 L178 604 L261 695 L344 604 L445 604 Z " />
<glyph glyph-name="atilde" unicode="&#xe3;" horiz-adv-x="534" d="M467 0 L467 343 C467 465 391 527 245 527 C158 527 108 511 57 455 L140 374 C167 405 190 417 240 417 C309 417 337 392 337 335 L337 309 L214 309 C93 309 36 241 36 158 C36 112 51 70 79 41 C110 10 153 -5 212 -5 C272 -5 305 10 340 45 L340 0 L467 0 Z M337 192 C337 160 332 139 318 126 C295 104 272 101 236 101 C185 101 161 125 161 161 C161 198 187 220 234 220 L337 220 L337 192 Z M441 674 L383 731 C357 705 341 702 324 702 C304 702 289 708 269 720 C241 737 222 743 192 743 C153 743 124 728 80 684 L136 627 C162 653 178 656 195 656 C215 656 232 649 251 638 C279 622 299 615 328 615 C366 615 397 630 441 674 L441 674 Z " />
<glyph glyph-name="adieresis" unicode="&#xe4;" horiz-adv-x="534" d="M467 0 L467 343 C467 465 391 527 245 527 C158 527 108 511 57 455 L140 374 C167 405 190 417 240 417 C309 417 337 392 337 335 L337 309 L214 309 C93 309 36 241 36 158 C36 112 51 70 79 41 C110 10 153 -5 212 -5 C272 -5 305 10 340 45 L340 0 L467 0 Z M337 192 C337 160 332 139 318 126 C295 104 272 101 236 101 C185 101 161 125 161 161 C161 198 187 220 234 220 L337 220 L337 192 Z M427 606 L427 731 L316 731 L316 606 L427 606 Z M206 606 L206 731 L95 731 L95 606 L206 606 Z " />
<glyph glyph-name="aring" unicode="&#xe5;" horiz-adv-x="534" d="M467 0 L467 343 C467 465 391 527 245 527 C158 527 108 511 57 455 L140 374 C167 405 190 417 240 417 C309 417 337 392 337 335 L337 309 L214 309 C93 309 36 241 36 158 C36 112 51 70 79 41 C110 10 153 -5 212 -5 C272 -5 305 10 340 45 L340 0 L467 0 Z M337 192 C337 160 332 139 318 126 C295 104 272 101 236 101 C185 101 161 125 161 161 C161 198 187 220 234 220 L337 220 L337 192 Z M392 715 C392 788 333 846 261 846 C189 846 130 787 130 715 C130 643 189 584 261 584 C333 584 392 643 392 715 L392 715 Z M319 715 C319 683 293 656 261 656 C229 656 203 683 203 715 C203 747 229 773 261 773 C293 773 319 747 319 715 L319 715 Z " />
<glyph glyph-name="ae" unicode="&#xe6;" horiz-adv-x="838" d="M791 220 L791 278 C791 421 709 527 564 527 C504 527 453 508 416 470 C381 508 325 527 245 527 C158 527 108 511 57 455 L140 374 C167 405 190 417 240 417 C309 417 337 392 337 335 L337 309 L214 309 C93 309 36 241 36 158 C36 112 51 70 79 41 C110 10 153 -6 212 -6 C285 -6 338 5 395 67 C441 14 508 -6 578 -6 C672 -6 723 23 776 76 L697 153 C664 120 636 104 579 104 C506 104 465 153 465 220 L791 220 Z M663 309 L465 309 C466 332 469 346 477 365 C491 396 520 419 564 419 C608 419 637 396 651 365 C659 346 662 332 663 309 L663 309 Z M337 192 C337 160 332 139 318 126 C295 104 272 101 236 101 C185 101 161 125 161 161 C161 198 187 220 234 220 L337 220 L337 192 Z " />
<glyph glyph-name="ccedilla" unicode="&#xe7;" horiz-adv-x="482" d="M452 65 L364 152 C337 123 314 111 280 111 C249 111 225 122 206 145 C186 170 177 206 177 261 C177 316 186 351 206 376 C225 399 249 410 280 410 C314 410 337 398 364 369 L452 457 C406 505 352 527 280 527 C176 527 47 472 47 261 C47 50 176 -6 280 -6 C352 -6 406 17 452 65 L452 65 Z M325 -60 L229 -60 L160 -206 L281 -206 L325 -60 Z " />
<glyph glyph-name="egrave" unicode="&#xe8;" horiz-adv-x="548" d="M501 220 L501 278 C501 421 419 527 274 527 C139 527 47 431 47 261 C47 50 165 -6 288 -6 C382 -6 433 23 486 76 L407 153 C374 120 346 104 289 104 C216 104 175 153 175 220 L501 220 Z M373 309 L175 309 C176 332 179 346 187 365 C201 396 230 419 274 419 C318 419 347 396 361 365 C369 346 372 332 373 309 L373 309 Z M332 604 L268 774 L131 774 L245 604 L332 604 Z " />
<glyph glyph-name="eacute" unicode="&#xe9;" horiz-adv-x="548" d="M501 220 L501 278 C501 421 419 527 274 527 C139 527 47 431 47 261 C47 50 165 -6 288 -6 C382 -6 433 23 486 76 L407 153 C374 120 346 104 289 104 C216 104 175 153 175 220 L501 220 Z M373 309 L175 309 C176 332 179 346 187 365 C201 396 230 419 274 419 C318 419 347 396 361 365 C369 346 372 332 373 309 L373 309 Z M423 774 L286 774 L222 604 L309 604 L423 774 Z " />
<glyph glyph-name="ecircumflex" unicode="&#xea;" horiz-adv-x="548" d="M501 220 L501 278 C501 421 419 527 274 527 C139 527 47 431 47 261 C47 50 165 -6 288 -6 C382 -6 433 23 486 76 L407 153 C374 120 346 104 289 104 C216 104 175 153 175 220 L501 220 Z M373 309 L175 309 C176 332 179 346 187 365 C201 396 230 419 274 419 C318 419 347 396 361 365 C369 346 372 332 373 309 L373 309 Z M461 604 L329 773 L225 773 L93 604 L194 604 L277 695 L360 604 L461 604 Z " />
<glyph glyph-name="edieresis" unicode="&#xeb;" horiz-adv-x="548" d="M501 220 L501 278 C501 421 419 527 274 527 C139 527 47 431 47 261 C47 50 165 -6 288 -6 C382 -6 433 23 486 76 L407 153 C374 120 346 104 289 104 C216 104 175 153 175 220 L501 220 Z M373 309 L175 309 C176 332 179 346 187 365 C201 396 230 419 274 419 C318 419 347 396 361 365 C369 346 372 332 373 309 L373 309 Z M443 606 L443 731 L332 731 L332 606 L443 606 Z M222 606 L222 731 L111 731 L111 606 L222 606 Z " />
<glyph glyph-name="igrave" unicode="&#xec;" horiz-adv-x="275" d="M203 0 L203 521 L73 521 L73 0 L203 0 Z M220 604 L156 774 L19 774 L133 604 L220 604 Z " />
<glyph glyph-name="iacute" unicode="&#xed;" horiz-adv-x="275" d="M203 0 L203 521 L73 521 L73 0 L203 0 Z M260 774 L123 774 L59 604 L146 604 L260 774 Z " />
<glyph glyph-name="icircumflex" unicode="&#xee;" horiz-adv-x="275" d="M203 0 L203 521 L73 521 L73 0 L203 0 Z M324 604 L192 773 L88 773 L-44 604 L57 604 L140 695 L223 604 L324 604 Z " />
<glyph glyph-name="idieresis" unicode="&#xef;" horiz-adv-x="275" d="M203 0 L203 521 L73 521 L73 0 L203 0 Z M303 606 L303 731 L192 731 L192 606 L303 606 Z M82 606 L82 731 L-29 731 L-29 606 L82 606 Z " />
<glyph glyph-name="eth" unicode="&#xf0;" horiz-adv-x="543" d="M486 254 C486 352 473 397 424 492 L384 569 L430 569 L430 660 L338 660 L307 720 L168 720 L199 660 L131 660 L131 569 L245 569 L279 507 C253 510 227 506 203 500 C166 490 135 473 114 451 C68 403 56 345 56 254 C56 162 68 104 114 56 C146 23 196 -6 271 -6 C346 -6 396 23 428 56 C474 104 486 162 486 254 L486 254 Z M356 254 C356 203 354 159 329 133 C315 119 295 111 271 111 C247 111 228 119 214 133 C189 159 186 203 186 254 C186 305 189 348 214 374 C228 388 247 396 271 396 C295 396 315 388 329 374 C354 348 356 305 356 254 L356 254 Z " />
<glyph glyph-name="ntilde" unicode="&#xf1;" horiz-adv-x="573" d="M506 0 L506 333 C506 390 495 439 453 481 C424 510 382 527 330 527 C282 527 234 509 200 473 L200 521 L73 521 L73 0 L203 0 L203 315 C203 386 249 410 290 410 C331 410 376 386 376 315 L376 0 L506 0 Z M470 674 L412 731 C386 705 370 702 353 702 C333 702 318 708 298 720 C270 737 251 743 221 743 C182 743 153 728 109 684 L165 627 C191 653 207 656 224 656 C244 656 261 649 280 638 C308 622 328 615 357 615 C395 615 426 630 470 674 L470 674 Z " />
<glyph glyph-name="ograve" unicode="&#xf2;" horiz-adv-x="543" d="M492 261 C492 355 480 414 433 463 C401 497 348 527 271 527 C194 527 142 497 110 463 C63 414 51 355 51 261 C51 166 63 107 110 58 C142 24 194 -6 271 -6 C348 -6 401 24 433 58 C480 107 492 166 492 261 L492 261 Z M362 261 C362 207 359 161 332 134 C317 119 297 111 271 111 C245 111 226 119 211 134 C184 161 181 207 181 261 C181 315 184 360 211 387 C226 402 245 410 271 410 C297 410 317 402 332 387 C359 360 362 315 362 261 L362 261 Z M323 604 L259 774 L122 774 L236 604 L323 604 Z " />
<glyph glyph-name="oacute" unicode="&#xf3;" horiz-adv-x="543" d="M492 261 C492 355 480 414 433 463 C401 497 348 527 271 527 C194 527 142 497 110 463 C63 414 51 355 51 261 C51 166 63 107 110 58 C142 24 194 -6 271 -6 C348 -6 401 24 433 58 C480 107 492 166 492 261 L492 261 Z M362 261 C362 207 359 161 332 134 C317 119 297 111 271 111 C245 111 226 119 211 134 C184 161 181 207 181 261 C181 315 184 360 211 387 C226 402 245 410 271 410 C297 410 317 402 332 387 C359 360 362 315 362 261 L362 261 Z M418 774 L281 774 L217 604 L304 604 L418 774 Z " />
<glyph glyph-name="ocircumflex" unicode="&#xf4;" horiz-adv-x="543" d="M492 261 C492 355 480 414 433 463 C401 497 348 527 271 527 C194 527 142 497 110 463 C63 414 51 355 51 261 C51 166 63 107 110 58 C142 24 194 -6 271 -6 C348 -6 401 24 433 58 C480 107 492 166 492 261 L492 261 Z M362 261 C362 207 359 161 332 134 C317 119 297 111 271 111 C245 111 226 119 211 134 C184 161 181 207 181 261 C181 315 184 360 211 387 C226 402 245 410 271 410 C297 410 317 402 332 387 C359 360 362 315 362 261 L362 261 Z M456 604 L324 773 L220 773 L88 604 L189 604 L272 695 L355 604 L456 604 Z " />
<glyph glyph-name="otilde" unicode="&#xf5;" horiz-adv-x="543" d="M492 261 C492 355 480 414 433 463 C401 497 348 527 271 527 C194 527 142 497 110 463 C63 414 51 355 51 261 C51 166 63 107 110 58 C142 24 194 -6 271 -6 C348 -6 401 24 433 58 C480 107 492 166 492 261 L492 261 Z M362 261 C362 207 359 161 332 134 C317 119 297 111 271 111 C245 111 226 119 211 134 C184 161 181 207 181 261 C181 315 184 360 211 387 C226 402 245 410 271 410 C297 410 317 402 332 387 C359 360 362 315 362 261 L362 261 Z M452 674 L394 731 C368 705 352 702 335 702 C315 702 300 708 280 720 C252 737 233 743 203 743 C164 743 135 728 91 684 L147 627 C173 653 189 656 206 656 C226 656 243 649 262 638 C290 622 310 615 339 615 C377 615 408 630 452 674 L452 674 Z " />
<glyph glyph-name="odieresis" unicode="&#xf6;" horiz-adv-x="543" d="M492 261 C492 355 480 414 433 463 C401 497 348 527 271 527 C194 527 142 497 110 463 C63 414 51 355 51 261 C51 166 63 107 110 58 C142 24 194 -6 271 -6 C348 -6 401 24 433 58 C480 107 492 166 492 261 L492 261 Z M362 261 C362 207 359 161 332 134 C317 119 297 111 271 111 C245 111 226 119 211 134 C184 161 181 207 181 261 C181 315 184 360 211 387 C226 402 245 410 271 410 C297 410 317 402 332 387 C359 360 362 315 362 261 L362 261 Z M438 606 L438 731 L327 731 L327 606 L438 606 Z M217 606 L217 731 L106 731 L106 606 L217 606 Z " />
<glyph glyph-name="divide" unicode="&#xf7;" horiz-adv-x="543" d="M337 423 L337 553 L207 553 L207 423 L337 423 Z M497 225 L497 346 L46 346 L46 225 L497 225 Z M337 18 L337 148 L207 148 L207 18 L337 18 Z " />
<glyph glyph-name="oslash" unicode="&#xf8;" horiz-adv-x="543" d="M492 261 C492 355 480 414 433 463 L431 464 L491 565 L411 565 L376 505 C348 519 313 527 271 527 C194 527 142 497 110 463 C63 414 51 355 51 261 C51 166 62 106 110 58 L111 57 L52 -44 L131 -44 L167 17 C195 3 229 -6 271 -6 C348 -6 401 24 433 58 C480 107 492 166 492 261 L492 261 Z M320 397 L188 175 C182 199 181 229 181 261 C181 315 184 360 211 387 C226 402 245 410 271 410 C290 410 307 405 320 397 L320 397 Z M362 261 C362 207 359 161 332 134 C317 119 297 111 271 111 C252 111 236 116 223 124 L354 346 C360 322 362 293 362 261 L362 261 Z " />
<glyph glyph-name="ugrave" unicode="&#xf9;" horiz-adv-x="573" d="M500 0 L500 521 L370 521 L370 206 C370 135 324 111 283 111 C242 111 197 135 197 206 L197 521 L67 521 L67 188 C67 131 78 82 120 40 C149 11 191 -6 243 -6 C291 -6 339 12 373 48 L373 0 L500 0 Z M338 604 L274 774 L137 774 L251 604 L338 604 Z " />
<glyph glyph-name="uacute" unicode="&#xfa;" horiz-adv-x="573" d="M500 0 L500 521 L370 521 L370 206 C370 135 324 111 283 111 C242 111 197 135 197 206 L197 521 L67 521 L67 188 C67 131 78 82 120 40 C149 11 191 -6 243 -6 C291 -6 339 12 373 48 L373 0 L500 0 Z M429 774 L292 774 L228 604 L315 604 L429 774 Z " />
<glyph glyph-name="ucircumflex" unicode="&#xfb;" horiz-adv-x="573" d="M500 0 L500 521 L370 521 L370 206 C370 135 324 111 283 111 C242 111 197 135 197 206 L197 521 L67 521 L67 188 C67 131 78 82 120 40 C149 11 191 -6 243 -6 C291 -6 339 12 373 48 L373 0 L500 0 Z M467 604 L335 773 L231 773 L99 604 L200 604 L283 695 L366 604 L467 604 Z " />
<glyph glyph-name="udieresis" unicode="&#xfc;" horiz-adv-x="573" d="M500 0 L500 521 L370 521 L370 206 C370 135 324 111 283 111 C242 111 197 135 197 206 L197 521 L67 521 L67 188 C67 131 78 82 120 40 C149 11 191 -6 243 -6 C291 -6 339 12 373 48 L373 0 L500 0 Z M449 606 L449 731 L338 731 L338 606 L449 606 Z M228 606 L228 731 L117 731 L117 606 L228 606 Z " />
<glyph glyph-name="yacute" unicode="&#xfd;" horiz-adv-x="494" d="M490 521 L353 521 L249 199 L141 521 L4 521 L182 37 L160 -27 C147 -65 132 -74 95 -74 L65 -74 L65 -191 L116 -191 C159 -191 198 -181 228 -151 C244 -135 256 -113 267 -84 L490 521 Z M390 774 L253 774 L189 604 L276 604 L390 774 Z " />
<glyph glyph-name="thorn" unicode="&#xfe;" horiz-adv-x="562" d="M509 261 C509 339 508 428 456 480 C427 509 380 527 329 527 C276 527 237 513 203 475 L203 712 L73 712 L73 -191 L203 -191 L203 46 C237 8 276 -6 329 -6 C380 -6 427 12 456 41 C508 93 509 183 509 261 L509 261 Z M379 261 C379 176 369 111 291 111 C213 111 203 176 203 261 C203 346 213 410 291 410 C369 410 379 346 379 261 L379 261 Z " />
<glyph glyph-name="ydieresis" unicode="&#xff;" horiz-adv-x="494" d="M490 521 L353 521 L249 199 L141 521 L4 521 L182 37 L160 -27 C147 -65 132 -74 95 -74 L65 -74 L65 -191 L116 -191 C159 -191 198 -181 228 -151 C244 -135 256 -113 267 -84 L490 521 Z M410 606 L410 731 L299 731 L299 606 L410 606 Z M189 606 L189 731 L78 731 L78 606 L189 606 Z " />
<glyph glyph-name="dotlessi" unicode="&#x131;" horiz-adv-x="275" d="M203 0 L203 521 L73 521 L73 0 L203 0 Z " />
<glyph glyph-name="Lslash" unicode="&#x141;" horiz-adv-x="593" d="M563 0 L563 124 L240 124 L240 332 L368 413 L368 528 L240 447 L240 712 L101 712 L101 360 L37 319 L37 203 L101 244 L101 0 L563 0 Z " />
<glyph glyph-name="lslash" unicode="&#x142;" horiz-adv-x="336" d="M309 0 L309 110 L259 110 C226 110 214 126 214 157 L214 380 L274 418 L274 527 L214 490 L214 712 L84 712 L84 412 L30 378 L30 269 L84 302 L84 149 C84 75 128 0 235 0 L309 0 Z " />
<glyph glyph-name="OE" unicode="&#x152;" horiz-adv-x="966" d="M912 0 L912 123 L584 123 C584 152 585 269 585 298 L863 298 L863 420 L585 420 C585 449 584 560 584 589 L911 589 L911 712 L446 712 L446 668 C412 704 362 718 318 718 C237 718 179 693 129 643 C58 572 59 479 59 356 C59 233 58 140 129 69 C179 19 237 -6 318 -6 C360 -6 412 8 446 44 L446 0 L912 0 Z M446 356 C446 219 438 186 411 156 C391 133 360 118 322 118 C284 118 252 133 232 156 C205 186 198 219 198 356 C198 493 205 526 232 556 C252 579 284 594 322 594 C360 594 391 579 411 556 C438 526 446 493 446 356 L446 356 Z " />
<glyph glyph-name="oe" unicode="&#x153;" horiz-adv-x="863" d="M816 220 L816 278 C816 421 734 527 589 527 C524 527 469 503 432 458 C400 498 345 527 271 527 C194 527 142 497 110 463 C63 414 51 355 51 261 C51 166 63 107 110 58 C142 24 194 -6 271 -6 C343 -6 397 21 429 60 C472 12 536 -6 603 -6 C697 -6 748 23 801 76 L721 153 C688 120 661 104 604 104 C531 104 490 153 490 220 L816 220 Z M687 309 L490 309 C491 332 493 346 501 365 C515 396 545 419 589 419 C633 419 662 396 676 365 C684 346 686 332 687 309 L687 309 Z M362 261 C362 207 359 161 332 134 C317 119 297 111 271 111 C245 111 226 119 211 134 C184 161 181 207 181 261 C181 315 184 360 211 387 C226 402 245 410 271 410 C297 410 317 402 332 387 C359 360 362 315 362 261 L362 261 Z " />
<glyph glyph-name="Scaron" unicode="&#x160;" horiz-adv-x="591" d="M543 210 C543 273 526 325 488 361 C458 389 417 407 352 416 L268 428 C239 432 216 443 202 456 C187 470 181 489 181 507 C181 556 217 597 291 597 C338 597 392 591 437 548 L525 635 C464 694 393 718 295 718 C141 718 47 629 47 502 C47 442 64 396 98 362 C130 331 175 312 236 303 L322 291 C355 286 371 279 385 266 C400 252 407 231 407 206 C407 149 363 118 281 118 C215 118 154 133 109 178 L19 88 C89 17 171 -6 279 -6 C428 -6 543 72 543 210 L543 210 Z M478 950 L377 950 L294 860 L211 950 L110 950 L242 781 L346 781 L478 950 Z " />
<glyph glyph-name="scaron" unicode="&#x161;" horiz-adv-x="501" d="M465 164 C465 252 413 307 310 317 L228 325 C182 329 174 351 174 370 C174 396 196 420 248 420 C293 420 339 412 369 385 L449 466 C399 513 331 527 250 527 C144 527 49 469 49 361 C49 265 107 224 201 215 L283 207 C324 203 338 185 338 159 C338 120 291 105 246 105 C206 105 150 111 107 154 L22 69 C88 3 162 -6 244 -6 C367 -6 465 49 465 164 L465 164 Z M434 773 L333 773 L250 683 L167 773 L66 773 L198 604 L302 604 L434 773 Z " />
<glyph glyph-name="Ydieresis" unicode="&#x178;" horiz-adv-x="572" d="M569 712 L418 712 L287 425 L154 712 L3 712 L217 292 L217 0 L355 0 L355 292 L569 712 Z M451 783 L451 908 L340 908 L340 783 L451 783 Z M230 783 L230 908 L119 908 L119 783 L230 783 Z " />
<glyph glyph-name="Zcaron" unicode="&#x17d;" horiz-adv-x="548" d="M508 0 L508 124 L203 124 L508 602 L508 712 L53 712 L53 588 L344 588 L40 112 L40 0 L508 0 Z M461 950 L360 950 L277 860 L194 950 L93 950 L225 781 L329 781 L461 950 Z " />
<glyph glyph-name="zcaron" unicode="&#x17e;" horiz-adv-x="478" d="M434 0 L434 117 L200 117 L434 422 L434 521 L50 521 L50 404 L268 404 L37 99 L37 0 L434 0 Z M426 773 L325 773 L242 683 L159 773 L58 773 L190 604 L294 604 L426 773 Z " />
<glyph glyph-name="florin" unicode="&#x192;" horiz-adv-x="427" d="M397 610 L397 719 L323 720 C217 721 159 645 146 571 L115 397 L31 397 L31 297 L98 297 L11 -191 L141 -191 L228 297 L341 297 L341 397 L245 397 L274 563 C279 593 297 610 328 610 L397 610 Z " />
<glyph glyph-name="circumflex" unicode="&#x2c6;" horiz-adv-x="500" d="M434 604 L302 773 L198 773 L66 604 L167 604 L250 695 L333 604 L434 604 Z " />
<glyph glyph-name="caron" unicode="&#x2c7;" horiz-adv-x="500" d="M434 773 L333 773 L250 683 L167 773 L66 773 L198 604 L302 604 L434 773 Z " />
<glyph glyph-name="breve" unicode="&#x2d8;" horiz-adv-x="500" d="M414 742 L327 742 C322 699 289 682 251 682 C213 682 179 699 174 742 L86 742 C91 634 165 591 251 591 C337 591 409 634 414 742 L414 742 Z " />
<glyph glyph-name="dotaccent" unicode="&#x2d9;" horiz-adv-x="500" d="M317 608 L317 714 L183 714 L183 608 L317 608 Z " />
<glyph glyph-name="ring" unicode="&#x2da;" horiz-adv-x="500" d="M381 715 C381 788 322 846 250 846 C178 846 119 787 119 715 C119 643 178 584 250 584 C322 584 381 643 381 715 L381 715 Z M308 715 C308 683 282 656 250 656 C218 656 192 683 192 715 C192 747 218 773 250 773 C282 773 308 747 308 715 L308 715 Z " />
<glyph glyph-name="ogonek" unicode="&#x2db;" horiz-adv-x="500" d="M334 -206 L266 -60 L169 -60 L213 -206 L334 -206 Z " />
<glyph glyph-name="tilde" unicode="&#x2dc;" horiz-adv-x="500" d="M430 674 L372 731 C346 705 330 702 313 702 C293 702 278 708 258 720 C230 737 211 743 181 743 C142 743 113 728 69 684 L125 627 C151 653 167 656 184 656 C204 656 221 649 240 638 C268 622 288 615 317 615 C355 615 386 630 430 674 L430 674 Z " />
<glyph glyph-name="hungarumlaut" unicode="&#x2dd;" horiz-adv-x="500" d="M465 774 L327 774 L264 604 L350 604 L465 774 Z M258 774 L120 774 L57 604 L144 604 L258 774 Z " />
<glyph glyph-name="pi" unicode="&#x3c0;" horiz-adv-x="592" d="M515 0 L515 521 L76 521 L76 0 L206 0 L206 399 L386 399 L386 0 L515 0 Z " />
<glyph glyph-name="endash" unicode="&#x2013;" horiz-adv-x="543" d="M493 225 L493 346 L50 346 L50 225 L493 225 Z " />
<glyph glyph-name="emdash" unicode="&#x2014;" horiz-adv-x="1027" d="M968 226 L968 351 L59 351 L59 226 L968 226 Z " />
<glyph glyph-name="quoteleft" unicode="&#x2018;" horiz-adv-x="273" d="M204 589 L204 817 L68 712 L68 589 L204 589 Z " />
<glyph glyph-name="quoteright" unicode="&#x2019;" horiz-adv-x="273" d="M204 588 L204 712 L68 712 L68 485 L204 588 Z " />
<glyph glyph-name="quotesinglbase" unicode="&#x201a;" horiz-adv-x="271" d="M204 0 L204 124 L68 124 L68 -104 L204 0 Z " />
<glyph glyph-name="quotedblleft" unicode="&#x201c;" horiz-adv-x="482" d="M414 589 L414 817 L278 712 L278 589 L414 589 Z M203 589 L203 817 L68 712 L68 589 L203 589 Z " />
<glyph glyph-name="quotedblright" unicode="&#x201d;" horiz-adv-x="482" d="M414 588 L414 712 L278 712 L278 485 L414 588 Z M203 588 L203 712 L68 712 L68 485 L203 588 Z " />
<glyph glyph-name="quotedblbase" unicode="&#x201e;" horiz-adv-x="485" d="M414 0 L414 124 L278 124 L278 -104 L414 0 Z M203 0 L203 124 L68 124 L68 -104 L203 0 Z " />
<glyph glyph-name="dagger" unicode="&#x2020;" horiz-adv-x="579" d="M522 410 L522 527 L354 527 L354 712 L224 712 L224 527 L57 527 L57 410 L224 410 L224 0 L354 0 L354 410 L522 410 Z " />
<glyph glyph-name="daggerdbl" unicode="&#x2021;" horiz-adv-x="579" d="M522 -6 L522 111 L354 111 L354 410 L522 410 L522 527 L354 527 L354 712 L224 712 L224 527 L57 527 L57 410 L224 410 L224 111 L57 111 L57 -6 L224 -6 L224 -191 L354 -191 L354 -6 L522 -6 Z " />
<glyph glyph-name="bullet" unicode="&#x2022;" horiz-adv-x="493" d="M409 334 C409 424 336 497 246 497 C156 497 83 424 83 334 C83 244 156 171 246 171 C336 171 409 244 409 334 L409 334 Z " />
<glyph glyph-name="ellipsis" unicode="&#x2026;" horiz-adv-x="846" d="M778 0 L778 141 L637 141 L637 0 L778 0 Z M493 0 L493 141 L352 141 L352 0 L493 0 Z M210 0 L210 141 L68 141 L68 0 L210 0 Z " />
<glyph glyph-name="perthousand" unicode="&#x2030;" horiz-adv-x="1211" d="M1158 131 L1158 230 C1158 320 1091 367 1013 367 C934 367 868 320 868 230 L868 131 C868 41 934 -6 1013 -6 C1091 -6 1158 41 1158 131 L1158 131 Z M796 131 L796 230 C796 320 729 367 651 367 C572 367 506 320 506 230 L506 131 C506 41 572 -6 651 -6 C729 -6 796 41 796 131 L796 131 Z M644 712 L542 712 L205 0 L307 0 L644 712 Z M342 482 L342 581 C342 671 275 718 197 718 C118 718 52 671 52 581 L52 482 C52 392 118 345 197 345 C275 345 342 392 342 482 L342 482 Z M1064 134 C1064 96 1045 78 1013 78 C980 78 962 97 962 135 L962 226 C962 264 980 283 1013 283 C1045 283 1064 264 1064 226 L1064 134 Z M702 135 C702 97 683 78 651 78 C618 78 600 97 600 135 L600 226 C600 264 618 283 651 283 C683 283 702 264 702 226 L702 135 Z M248 486 C248 448 229 429 197 429 C165 429 146 448 146 486 L146 577 C146 615 164 634 197 634 C229 634 248 615 248 577 L248 486 Z " />
<glyph glyph-name="guilsinglleft" unicode="&#x2039;" horiz-adv-x="350" d="M283 27 L283 182 L189 275 L283 368 L283 523 L34 275 L283 27 Z " />
<glyph glyph-name="guilsinglright" unicode="&#x203a;" horiz-adv-x="350" d="M316 275 L67 523 L67 368 L162 275 L67 182 L67 27 L316 275 Z " />
<glyph glyph-name="fraction" unicode="&#x2044;" horiz-adv-x="208" d="M323 712 L222 712 L-115 0 L-14 0 L323 712 Z " />
<glyph glyph-name="trademark" unicode="&#x2122;" horiz-adv-x="924" d="M860 285 L860 712 L765 712 L643 484 L521 712 L426 712 L426 285 L521 285 L521 537 L601 380 L685 380 L765 537 L765 285 L860 285 Z M360 627 L360 712 L45 712 L45 627 L155 627 L155 285 L250 285 L250 627 L360 627 Z " />
<glyph glyph-name="Omega" unicode="&#x2126;" horiz-adv-x="644" d="M585 0 L585 123 L526 123 C543 141 554 159 562 178 C582 227 585 290 585 356 C585 479 586 568 514 640 C464 690 403 718 322 718 C241 718 179 690 129 640 C57 568 59 479 59 356 C59 290 62 227 82 178 C90 159 101 141 118 123 L59 123 L59 0 L278 0 L278 109 C254 120 237 134 224 153 C206 180 198 226 198 349 C198 486 206 525 232 555 C252 578 284 594 322 594 C360 594 391 578 411 555 C437 525 446 486 446 349 C446 226 438 180 420 153 C407 134 390 120 366 109 L366 0 L585 0 Z " />
<glyph glyph-name="partialdiff" unicode="&#x2202;" horiz-adv-x="555" d="M482 254 L482 481 C482 619 406 718 253 718 C173 718 118 702 64 650 L145 568 C174 596 203 608 247 608 C328 608 351 547 351 511 C351 511 351 485 351 484 C326 507 295 513 264 513 C190 513 143 484 114 453 C69 405 56 348 56 254 C56 162 69 104 114 56 C145 23 195 -6 269 -6 C343 -6 394 23 425 56 C470 104 482 162 482 254 L482 254 Z M352 254 C352 203 349 159 325 133 C311 119 292 111 269 111 C246 111 227 119 213 133 C189 159 186 203 186 254 C186 305 189 348 213 374 C227 388 246 396 269 396 C292 396 311 388 325 374 C349 348 352 305 352 254 L352 254 Z " />
<glyph glyph-name="Delta" unicode="&#x2206;" horiz-adv-x="634" d="M631 0 L371 712 L263 712 L3 0 L631 0 Z M450 117 L186 117 L320 502 L450 117 Z " />
<glyph glyph-name="product" unicode="&#x220f;" horiz-adv-x="685" d="M602 -191 L602 760 L83 760 L83 -191 L222 -191 L222 637 L463 637 L463 -191 L602 -191 Z " />
<glyph glyph-name="summation" unicode="&#x2211;" horiz-adv-x="552" d="M515 -191 L515 -67 L200 -67 L346 228 L346 357 L205 636 L511 636 L511 760 L43 760 L43 650 L229 295 L40 -81 L40 -191 L515 -191 Z " />
<glyph glyph-name="minus" unicode="&#x2212;" horiz-adv-x="543" d="M493 225 L493 346 L50 346 L50 225 L493 225 Z " />
<glyph glyph-name="radical" unicode="&#x221a;" horiz-adv-x="596" d="M566 588 L566 712 L371 712 L228 248 L144 521 L3 521 L175 0 L280 0 L474 588 L566 588 Z " />
<glyph glyph-name="infinity" unicode="&#x221e;" horiz-adv-x="851" d="M796 284 C796 389 730 474 606 474 C535 474 476 437 425 379 C374 437 315 474 245 474 C121 474 55 389 55 284 C55 179 121 96 245 96 C315 96 374 132 425 190 C476 132 535 96 606 96 C730 96 796 179 796 284 L796 284 Z M670 281 C670 240 640 216 605 216 C569 216 544 245 514 281 C544 317 569 346 605 346 C640 346 670 322 670 281 L670 281 Z M337 281 C307 245 281 216 245 216 C210 216 181 240 181 281 C181 322 210 347 245 347 C281 347 307 317 337 281 L337 281 Z " />
<glyph glyph-name="integral" unicode="&#x222b;" horiz-adv-x="490" d="M433 615 L433 725 L368 725 C254 725 177 660 177 543 L177 -6 C177 -54 151 -76 106 -76 L57 -76 L57 -186 L122 -186 C236 -186 313 -122 313 -5 L313 544 C313 592 339 615 384 615 L433 615 Z " />
<glyph glyph-name="approxequal" unicode="&#x2248;" horiz-adv-x="606" d="M569 393 L486 475 C449 438 426 432 399 432 C370 432 347 442 318 457 C275 480 242 490 201 490 C140 490 99 466 37 404 L119 322 C156 359 178 364 205 364 C234 364 258 355 287 340 C330 317 363 307 404 307 C465 307 507 331 569 393 L569 393 Z M569 167 L487 249 C450 212 428 207 401 207 C372 207 348 216 319 231 C276 254 244 264 203 264 C142 264 99 240 37 178 L120 96 C157 133 180 139 207 139 C236 139 259 129 288 114 C331 91 364 81 405 81 C466 81 507 105 569 167 L569 167 Z " />
<glyph glyph-name="notequal" unicode="&#x2260;" horiz-adv-x="602" d="M552 116 L552 238 L326 238 L404 333 L552 333 L552 455 L497 455 L552 522 L473 584 L370 455 L50 455 L50 333 L277 333 L199 238 L50 238 L50 116 L105 116 L50 49 L129 -13 L232 116 L552 116 Z " />
<glyph glyph-name="lessequal" unicode="&#x2264;" horiz-adv-x="1027" d="M884 1 L387 499 L847 497 L731 613 L185 613 L185 68 L301 -48 L300 412 L797 -86 L884 1 Z " />
<glyph glyph-name="greaterequal" unicode="&#x2265;" horiz-adv-x="1027" d="M841 69 L841 613 L296 613 L180 497 L640 499 L142 1 L229 -86 L727 412 L725 -47 L841 69 Z " />
<glyph glyph-name="lozenge" unicode="&#x25ca;" horiz-adv-x="636" d="M581 341 L318 707 L55 341 L318 -26 L581 341 Z M435 341 L318 176 L201 341 L318 505 L435 341 Z " />
<glyph glyph-name="fi" unicode="&#xfb01;" horiz-adv-x="602" d="M532 610 L532 716 L398 716 L398 610 L532 610 Z M530 0 L530 506 L400 506 L400 0 L530 0 Z M311 407 L311 506 L215 506 L215 563 C215 593 230 610 261 610 L311 610 L311 720 L237 720 C131 720 85 645 85 571 L85 506 L31 506 L31 407 L85 407 L85 0 L215 0 L215 407 L311 407 Z " />
<glyph glyph-name="fl" unicode="&#xfb02;" horiz-adv-x="648" d="M624 0 L624 110 L574 110 C541 110 528 126 528 157 L528 712 L398 712 L398 149 C398 75 443 0 550 0 L624 0 Z M311 407 L311 506 L215 506 L215 563 C215 593 230 610 261 610 L311 610 L311 720 L237 720 C131 720 85 645 85 571 L85 506 L31 506 L31 407 L85 407 L85 0 L215 0 L215 407 L311 407 Z " />
</font>
</svg>
